<svg width="561" height="173" viewBox="0 0 561 173" fill="none" xmlns="http://www.w3.org/2000/svg">
<path d="M30.752 75.104C32.288 73.28 34.064 71.456 36.08 69.632C38.096 67.712 40.16 65.984 42.272 64.448C44.384 62.912 46.352 61.712 48.176 60.848C50.096 59.888 51.728 59.408 53.072 59.408C54.992 59.408 56.48 60.464 57.536 62.576C58.688 64.592 59.264 66.848 59.264 69.344C59.264 70.976 59.072 72.368 58.688 73.52C60.416 71.792 62.24 70.112 64.16 68.48C66.176 66.848 68.144 65.456 70.064 64.304C72.08 63.056 73.952 62.048 75.68 61.28C77.408 60.512 78.848 60.128 80 60.128C81.632 60.128 82.832 60.896 83.6 62.432C84.464 63.968 84.896 65.84 84.896 68.048C84.896 69.296 84.752 70.592 84.464 71.936C84.272 73.28 83.936 74.624 83.456 75.968C82.496 78.368 81.152 80.912 79.424 83.6C77.696 86.384 75.968 89.168 74.24 91.952C72.512 94.736 71.024 97.472 69.776 100.16C68.528 102.752 67.904 105.056 67.904 107.072C67.904 109.184 68.384 110.864 69.344 112.112C70.4 113.264 71.744 113.84 73.376 113.84C74.816 113.84 76.304 113.264 77.84 112.112C79.376 110.96 80.912 109.472 82.448 107.648C83.984 105.824 85.472 103.76 86.912 101.456C88.448 99.056 89.936 96.608 91.376 94.112C91.76 93.44 92.192 93.104 92.672 93.104C93.152 93.104 93.536 93.296 93.824 93.68C94.112 93.968 94.256 94.64 94.256 95.696C94.256 98.384 93.536 101.072 92.096 103.76C90.656 106.448 88.784 108.896 86.48 111.104C84.272 113.216 81.776 114.944 78.992 116.288C76.304 117.632 73.664 118.304 71.072 118.304C66.464 118.304 62.96 117.152 60.56 114.848C58.256 112.544 57.104 109.52 57.104 105.776C57.104 103.856 57.536 101.696 58.4 99.296C59.36 96.896 60.512 94.448 61.856 91.952C63.2 89.36 64.688 86.768 66.32 84.176C67.952 81.68 69.44 79.376 70.784 77.264C72.128 75.056 73.232 73.184 74.096 71.648C75.056 70.016 75.536 68.864 75.536 68.192C75.536 67.904 75.296 67.76 74.816 67.76C73.952 67.76 72.272 68.48 69.776 69.92C67.376 71.264 64.064 74.048 59.84 78.272C53.792 84.32 48.848 90.656 45.008 97.28C41.264 103.904 37.856 110.672 34.784 117.584C34.208 118.64 33.584 119.168 32.912 119.168C32.24 119.168 31.376 118.4 30.32 116.864C29.264 115.424 28.736 113.36 28.736 110.672C28.736 107.792 29.552 104.288 31.184 100.16C32.24 97.376 33.728 94.352 35.648 91.088C37.664 87.728 39.68 84.464 41.696 81.296C43.616 78.224 45.296 75.488 46.736 73.088C48.176 70.688 48.896 69.008 48.896 68.048C48.896 67.568 48.608 67.328 48.032 67.328C46.784 67.328 44.624 68.384 41.552 70.496C38.576 72.512 34.928 75.872 30.608 80.576C26.288 85.28 22.4 90.752 18.944 96.992C15.488 103.232 12.32 109.808 9.44 116.72C9.056 117.68 8.576 118.16 8 118.16C7.424 118.16 6.896 117.872 6.416 117.296C5.84 116.816 5.36 116.192 4.976 115.424C4.592 114.656 4.304 113.84 4.112 112.976C3.824 112.016 3.68 111.152 3.68 110.384C3.68 108.944 4.304 106.448 5.552 102.896C6.8 99.248 8.48 95.072 10.592 90.368C12.8 85.568 15.344 80.528 18.224 75.248C21.2 69.872 24.416 64.688 27.872 59.696C28.352 58.928 28.832 58.544 29.312 58.544C29.792 58.544 30.224 58.832 30.608 59.408C30.992 59.888 31.328 60.512 31.616 61.28C31.904 62.048 32.096 62.912 32.192 63.872C32.384 64.736 32.48 65.552 32.48 66.32C32.48 69.2 31.904 72.128 30.752 75.104ZM102.67 91.376C101.23 95.6 100.51 99.248 100.51 102.32C100.51 106.352 101.374 109.328 103.102 111.248C104.83 113.168 107.182 114.128 110.158 114.128C112.942 114.128 115.678 113.504 118.366 112.256C121.054 110.912 123.598 109.28 125.998 107.36C128.398 105.344 130.606 103.136 132.622 100.736C134.638 98.336 136.366 95.984 137.806 93.68C138.094 93.104 138.478 92.816 138.958 92.816C139.342 92.816 139.678 93.008 139.966 93.392C140.35 93.776 140.542 94.4 140.542 95.264C140.542 98.144 139.486 100.976 137.374 103.76C135.262 106.544 132.622 109.04 129.454 111.248C126.286 113.36 122.83 115.04 119.086 116.288C115.438 117.632 112.03 118.304 108.862 118.304C102.718 118.304 98.0139 116.48 94.7499 112.832C91.5819 109.088 89.9979 104.336 89.9979 98.576C89.9979 93.296 91.4379 87.776 94.3179 82.016C96.1419 78.272 98.2059 74.96 100.51 72.08C102.814 69.2 105.166 66.8 107.566 64.88C109.966 62.96 112.318 61.52 114.622 60.56C117.022 59.504 119.182 58.976 121.102 58.976C122.638 58.976 124.222 59.408 125.854 60.272C127.582 61.04 129.118 62.096 130.462 63.44C131.902 64.784 133.054 66.272 133.918 67.904C134.878 69.536 135.358 71.12 135.358 72.656C135.358 74.96 134.782 77.504 133.63 80.288C132.478 82.976 130.894 85.472 128.878 87.776C126.958 90.08 124.702 92.048 122.11 93.68C119.614 95.216 116.974 95.984 114.19 95.984C110.35 95.984 106.51 94.448 102.67 91.376ZM103.966 88.208C105.598 89.264 107.23 89.792 108.862 89.792C111.166 89.792 113.422 88.88 115.63 87.056C117.838 85.136 119.806 82.976 121.534 80.576C123.358 78.08 124.798 75.632 125.854 73.232C126.91 70.736 127.438 68.864 127.438 67.616C127.438 66.176 126.766 65.456 125.422 65.456C124.366 65.456 122.974 65.984 121.246 67.04C119.614 68 117.838 69.392 115.918 71.216C114.094 72.944 112.222 75.056 110.302 77.552C108.382 80.048 106.654 82.784 105.118 85.76L104.542 87.056L103.966 88.208ZM195.307 103.04C192.523 107.456 188.683 111.152 183.787 114.128C178.891 117.104 173.419 119.696 167.371 121.904C165.163 126.992 162.763 132.272 160.171 137.744C157.675 143.312 155.035 148.448 152.251 153.152C149.467 157.856 146.587 161.696 143.611 164.672C140.635 167.744 137.707 169.28 134.827 169.28C133.675 169.28 132.571 168.848 131.515 167.984C130.363 167.12 129.307 166.016 128.347 164.672C127.387 163.328 126.619 161.744 126.043 159.92C125.467 158.192 125.179 156.416 125.179 154.592C125.179 150.56 126.091 146.768 127.915 143.216C129.739 139.76 132.187 136.592 135.259 133.712C138.235 130.832 141.595 128.288 145.339 126.08C149.179 123.872 153.115 122.048 157.147 120.608C157.915 118.976 158.635 117.296 159.307 115.568C159.883 113.936 160.555 112.304 161.323 110.672C159.211 112.784 156.907 114.512 154.411 115.856C152.011 117.2 149.467 117.872 146.779 117.872C142.939 117.872 140.011 116.576 137.995 113.984C136.075 111.392 135.115 108.08 135.115 104.048C135.115 100.976 135.739 97.568 136.987 93.824C138.235 90.08 140.107 86.336 142.603 82.592C145.387 78.464 148.171 74.912 150.955 71.936C153.835 68.96 156.571 66.56 159.163 64.736C161.755 62.912 164.203 61.568 166.507 60.704C168.907 59.84 171.019 59.408 172.843 59.408C175.819 59.408 177.979 60.368 179.323 62.288C180.667 64.208 181.339 66.416 181.339 68.912C181.915 67.952 182.491 66.896 183.067 65.744C183.643 64.688 184.219 63.68 184.795 62.72C185.371 61.76 185.947 60.944 186.523 60.272C187.099 59.6 187.627 59.264 188.107 59.264C189.067 59.264 189.883 60.08 190.555 61.712C191.323 63.248 191.707 65.024 191.707 67.04C191.707 68.768 190.987 71.36 189.547 74.816C188.203 78.176 186.427 82.064 184.219 86.48C182.107 90.896 179.803 95.6 177.307 100.592C174.715 105.68 172.267 110.816 169.963 116C176.011 112.928 181.099 109.52 185.227 105.776C189.355 102.032 192.859 98.24 195.739 94.4C196.123 93.824 196.603 93.536 197.179 93.536C197.371 93.536 197.611 93.68 197.899 93.968C198.187 94.256 198.331 94.784 198.331 95.552C198.331 97.376 197.323 99.872 195.307 103.04ZM168.811 91.808C171.787 86.624 173.947 82.256 175.291 78.704C176.635 75.152 177.307 72.368 177.307 70.352C177.307 67.952 176.443 66.752 174.715 66.752C173.563 66.752 172.027 67.376 170.107 68.624C168.187 69.872 166.123 71.6 163.915 73.808C161.707 75.92 159.451 78.368 157.147 81.152C154.939 83.936 152.923 86.864 151.099 89.936C149.371 92.912 147.931 95.984 146.779 99.152C145.627 102.32 145.051 105.296 145.051 108.08C145.051 111.632 146.203 113.408 148.507 113.408C151.291 113.408 154.459 111.392 158.011 107.36C161.563 103.328 165.163 98.144 168.811 91.808ZM154.699 126.512C150.667 128.912 147.163 131.6 144.187 134.576C141.307 137.648 138.907 140.672 136.987 143.648C135.163 146.72 133.819 149.552 132.955 152.144C132.091 154.832 131.659 156.944 131.659 158.48C131.659 159.152 131.755 159.728 131.947 160.208C132.043 160.688 132.283 160.928 132.667 160.928C133.435 160.928 134.587 160.064 136.123 158.336C137.755 156.704 139.579 154.352 141.595 151.28C143.611 148.304 145.723 144.704 147.931 140.48C150.235 136.256 152.491 131.6 154.699 126.512ZM240 69.2C240.672 68.048 241.344 66.848 242.016 65.6C242.688 64.352 243.312 63.248 243.888 62.288C244.56 61.232 245.136 60.416 245.616 59.84C246.192 59.168 246.72 58.832 247.2 58.832C247.968 58.832 248.544 59.216 248.928 59.984C249.408 60.752 249.744 61.616 249.936 62.576C250.224 63.44 250.416 64.304 250.512 65.168C250.608 66.032 250.656 66.512 250.656 66.608C250.656 68.912 249.696 71.936 247.776 75.68C245.856 79.328 243.744 83.216 241.44 87.344C239.04 91.472 236.88 95.6 234.96 99.728C233.04 103.76 232.08 107.264 232.08 110.24C232.08 113.024 233.184 114.416 235.392 114.416C236.832 114.416 238.368 113.888 240 112.832C241.728 111.68 243.456 110.192 245.184 108.368C246.912 106.448 248.592 104.288 250.224 101.888C251.856 99.488 253.344 96.992 254.688 94.4C255.072 93.728 255.504 93.392 255.984 93.392C256.848 93.392 257.28 94.4 257.28 96.416C257.28 98.72 256.608 101.168 255.264 103.76C254.016 106.352 252.336 108.752 250.224 110.96C248.112 113.168 245.76 114.992 243.168 116.432C240.672 117.872 238.128 118.592 235.536 118.592C231.312 118.592 228.192 117.488 226.176 115.28C224.16 112.976 223.152 110.144 223.152 106.784C220.848 109.76 218.112 112.4 214.944 114.704C211.872 116.912 208.608 118.016 205.152 118.016C201.312 118.016 198.384 116.72 196.368 114.128C194.352 111.44 193.344 108.032 193.344 103.904C193.344 100.736 193.968 97.28 195.216 93.536C196.464 89.792 198.384 86.048 200.976 82.304C206.832 73.856 212.4 67.856 217.68 64.304C223.056 60.656 227.568 58.832 231.216 58.832C234.384 58.832 236.64 59.888 237.984 62C239.328 64.016 240 66.416 240 69.2ZM227.472 91.52C230.448 86.336 232.608 81.968 233.952 78.416C235.296 74.768 235.968 71.936 235.968 69.92C235.968 67.712 235.2 66.512 233.664 66.32C232.032 66.32 229.536 67.664 226.176 70.352C222.912 72.944 219.552 76.304 216.096 80.432C212.736 84.56 209.76 89.072 207.168 93.968C204.672 98.864 203.424 103.568 203.424 108.08C203.424 109.712 203.712 111.008 204.288 111.968C204.864 112.832 205.68 113.264 206.736 113.264C209.712 113.264 212.976 111.248 216.528 107.216C220.176 103.184 223.824 97.952 227.472 91.52ZM278.192 66.032C281.168 63.152 284.144 60.944 287.12 59.408C290.096 57.872 292.592 57.104 294.608 57.104C295.664 57.104 296.768 57.44 297.92 58.112C299.072 58.784 300.128 59.744 301.088 60.992C302.048 62.24 302.816 63.728 303.392 65.456C304.064 67.088 304.4 68.912 304.4 70.928C304.4 72.944 303.776 75.056 302.528 77.264C301.28 79.376 299.552 81.392 297.344 83.312C295.232 85.232 292.64 87.008 289.568 88.64C286.592 90.272 283.328 91.616 279.776 92.672C280.064 98.816 281.168 103.808 283.088 107.648C285.008 111.392 287.456 113.264 290.432 113.264C291.872 113.264 293.408 112.64 295.04 111.392C296.672 110.144 298.256 108.608 299.792 106.784C301.424 104.864 302.912 102.752 304.256 100.448C305.696 98.144 306.944 95.936 308 93.824C308.576 92.96 309.104 92.528 309.584 92.528C309.968 92.528 310.304 92.816 310.592 93.392C310.976 93.968 311.168 94.784 311.168 95.84C311.168 96.8 310.688 98.48 309.728 100.88C308.864 103.28 307.424 105.728 305.408 108.224C303.488 110.624 301.04 112.784 298.064 114.704C295.184 116.624 291.728 117.584 287.696 117.584C285.104 117.584 282.704 117.056 280.496 116C278.288 114.848 276.368 113.168 274.736 110.96C273.104 108.656 271.808 105.776 270.848 102.32C269.888 98.768 269.408 94.592 269.408 89.792C269.408 88.544 269.552 87.728 269.84 87.344C270.224 86.864 271.088 86.384 272.432 85.904C276.464 84.56 280.016 82.976 283.088 81.152C286.256 79.232 288.944 77.312 291.152 75.392C293.36 73.472 295.04 71.6 296.192 69.776C297.344 67.952 297.92 66.368 297.92 65.024C297.92 63.296 296.912 62.432 294.896 62.432C291.728 62.432 287.456 64.496 282.08 68.624C279.392 70.64 276.896 73.04 274.592 75.824C272.384 78.512 270.176 81.728 267.968 85.472C265.856 89.216 263.648 93.584 261.344 98.576C259.04 103.568 256.496 109.376 253.712 116C253.424 116.672 252.992 117.008 252.416 117.008C251.552 117.008 250.832 116.336 250.256 114.992C249.584 113.552 249.248 111.92 249.248 110.096C249.248 108.848 249.392 107.456 249.68 105.92C249.872 104.288 250.304 102.464 250.976 100.448C251.648 98.24 252.8 95.216 254.432 91.376C256.16 87.44 258.176 83.072 260.48 78.272C262.784 73.472 265.28 68.432 267.968 63.152C270.752 57.776 273.536 52.592 276.32 47.6C279.104 42.512 281.84 37.808 284.528 33.488C287.216 29.072 289.616 25.424 291.728 22.544C292.4 21.584 293.072 21.104 293.744 21.104C294.512 21.104 295.184 21.872 295.76 23.408C296.336 24.944 296.624 26.432 296.624 27.872C296.624 29.6 296.096 31.808 295.04 34.496C293.984 37.088 292.592 40.064 290.864 43.424C289.136 46.784 287.168 50.384 284.96 54.224C282.752 58.064 280.496 62 278.192 66.032ZM316.842 91.376C315.402 95.6 314.682 99.248 314.682 102.32C314.682 106.352 315.546 109.328 317.274 111.248C319.002 113.168 321.354 114.128 324.33 114.128C327.114 114.128 329.85 113.504 332.538 112.256C335.226 110.912 337.77 109.28 340.17 107.36C342.57 105.344 344.778 103.136 346.794 100.736C348.81 98.336 350.538 95.984 351.978 93.68C352.266 93.104 352.65 92.816 353.13 92.816C353.514 92.816 353.85 93.008 354.138 93.392C354.522 93.776 354.714 94.4 354.714 95.264C354.714 98.144 353.658 100.976 351.546 103.76C349.434 106.544 346.794 109.04 343.626 111.248C340.458 113.36 337.002 115.04 333.258 116.288C329.61 117.632 326.202 118.304 323.034 118.304C316.89 118.304 312.186 116.48 308.922 112.832C305.754 109.088 304.17 104.336 304.17 98.576C304.17 93.296 305.61 87.776 308.49 82.016C310.314 78.272 312.378 74.96 314.682 72.08C316.986 69.2 319.338 66.8 321.738 64.88C324.138 62.96 326.49 61.52 328.794 60.56C331.194 59.504 333.354 58.976 335.274 58.976C336.81 58.976 338.394 59.408 340.026 60.272C341.754 61.04 343.29 62.096 344.634 63.44C346.074 64.784 347.226 66.272 348.09 67.904C349.05 69.536 349.53 71.12 349.53 72.656C349.53 74.96 348.954 77.504 347.802 80.288C346.65 82.976 345.066 85.472 343.05 87.776C341.13 90.08 338.874 92.048 336.282 93.68C333.786 95.216 331.146 95.984 328.362 95.984C324.522 95.984 320.682 94.448 316.842 91.376ZM318.138 88.208C319.77 89.264 321.402 89.792 323.034 89.792C325.338 89.792 327.594 88.88 329.802 87.056C332.01 85.136 333.978 82.976 335.706 80.576C337.53 78.08 338.97 75.632 340.026 73.232C341.082 70.736 341.61 68.864 341.61 67.616C341.61 66.176 340.938 65.456 339.594 65.456C338.538 65.456 337.146 65.984 335.418 67.04C333.786 68 332.01 69.392 330.09 71.216C328.266 72.944 326.394 75.056 324.474 77.552C322.554 80.048 320.826 82.784 319.29 85.76L318.714 87.056L318.138 88.208ZM367.578 59.984C365.658 59.984 364.074 59.744 362.826 59.264C361.578 58.784 360.522 58.256 359.658 57.68C358.89 57.104 358.314 56.528 357.93 55.952C357.642 55.28 357.498 54.8 357.498 54.512C357.498 54.128 358.026 53.84 359.082 53.648C360.234 53.456 361.578 53.312 363.114 53.216C364.65 53.12 366.234 53.072 367.866 53.072C369.402 53.072 370.698 52.976 371.754 52.784C373.194 50.192 374.538 47.744 375.786 45.44C377.13 43.136 378.378 41.12 379.53 39.392C380.682 37.664 381.69 36.272 382.554 35.216C383.418 34.16 384.09 33.632 384.57 33.632C385.434 33.632 386.058 34.4 386.442 35.936C386.922 37.472 387.162 38.912 387.162 40.256C387.162 43.328 386.202 46.976 384.282 51.2C386.01 51.2 387.45 51.44 388.602 51.92C389.85 52.304 390.81 52.832 391.482 53.504C392.25 54.08 392.778 54.704 393.066 55.376C393.45 56.048 393.642 56.576 393.642 56.96C393.642 57.824 392.922 58.256 391.482 58.256C391.002 58.16 390.474 58.112 389.898 58.112C389.418 58.112 388.938 58.112 388.458 58.112C387.114 58.112 385.722 58.208 384.282 58.4C382.938 58.496 381.594 58.64 380.25 58.832C378.426 61.904 376.266 65.552 373.77 69.776C371.178 74 368.73 78.32 366.426 82.736C364.122 87.152 362.154 91.424 360.522 95.552C358.986 99.68 358.218 103.136 358.218 105.92C358.218 108.416 358.698 110.384 359.658 111.824C360.618 113.264 362.01 114.08 363.834 114.272C365.466 114.272 367.146 113.744 368.874 112.688C370.698 111.536 372.474 110 374.202 108.08C376.026 106.16 377.754 103.952 379.386 101.456C381.018 98.96 382.506 96.32 383.85 93.536C384.522 92.576 385.098 92.096 385.578 92.096C386.058 92.096 386.442 92.432 386.73 93.104C387.018 93.776 387.162 94.592 387.162 95.552C387.162 96.512 386.97 97.472 386.586 98.432C386.298 99.392 385.914 100.496 385.434 101.744C384.954 102.8 384.042 104.24 382.698 106.064C381.45 107.888 379.818 109.712 377.802 111.536C375.882 113.36 373.674 114.896 371.178 116.144C368.682 117.488 365.994 118.16 363.114 118.16C359.466 118.16 356.298 116.816 353.61 114.128C350.922 111.344 349.578 107.504 349.578 102.608C349.578 98 351.258 92.192 354.618 85.184C358.074 78.176 362.394 69.776 367.578 59.984ZM433.799 79.712C435.335 80.48 436.583 81.536 437.543 82.88C438.599 84.224 439.127 85.472 439.127 86.624C439.127 87.392 438.791 87.776 438.119 87.776C436.967 87.776 435.671 87.68 434.231 87.488C432.791 87.296 431.303 87.2 429.767 87.2C428.423 89.504 426.839 92.528 425.015 96.272C423.287 99.92 421.607 103.472 419.975 106.928C418.343 110.48 416.855 113.504 415.511 116C414.263 118.592 413.495 119.888 413.207 119.888C412.343 119.888 411.479 118.976 410.615 117.152C409.847 115.424 409.463 113.648 409.463 111.824C409.463 109.232 410.183 106.064 411.623 102.32C413.159 98.576 415.223 93.872 417.815 88.208C414.167 88.688 410.471 89.264 406.727 89.936C403.079 90.512 399.767 91.184 396.791 91.952C395.831 92.144 395.159 92.24 394.775 92.24C393.911 92.24 392.951 91.712 391.895 90.656C390.935 89.6 390.023 88.4 389.159 87.056C388.295 85.712 387.575 84.416 386.999 83.168C386.519 81.92 386.279 81.056 386.279 80.576C386.279 79.808 386.663 78.944 387.431 77.984C390.407 74.432 394.247 70.496 398.951 66.176C403.655 61.76 408.695 57.392 414.071 53.072C419.447 48.656 424.871 44.432 430.343 40.4C435.911 36.272 440.999 32.72 445.607 29.744C446.567 29.072 447.575 28.736 448.631 28.736C449.111 28.736 449.543 28.832 449.927 29.024C450.407 29.216 450.839 29.6 451.223 30.176L455.255 36.944C456.023 38.48 456.407 39.584 456.407 40.256C456.407 41.024 455.687 42.704 454.247 45.296C452.807 47.792 450.983 50.864 448.775 54.512C446.471 58.16 443.975 62.192 441.287 66.608C438.695 71.024 436.199 75.392 433.799 79.712ZM443.735 42.272C439.511 45.152 435.143 48.272 430.631 51.632C426.119 54.896 421.655 58.256 417.239 61.712C412.823 65.168 408.599 68.672 404.567 72.224C400.631 75.776 397.079 79.232 393.911 82.592C398.327 81.44 403.079 80.432 408.167 79.568C413.351 78.704 418.247 78.176 422.855 77.984C426.023 71.84 429.431 65.648 433.079 59.408C436.727 53.168 440.279 47.456 443.735 42.272ZM469.912 104.336C468.76 105.968 467.416 107.6 465.88 109.232C464.44 110.768 462.856 112.208 461.128 113.552C459.4 114.8 457.624 115.808 455.8 116.576C453.976 117.44 452.104 117.872 450.184 117.872C446.44 117.872 443.8 116.816 442.264 114.704C440.823 112.592 440.103 110 440.103 106.928C440.103 104.432 440.631 101.456 441.688 98C442.648 94.544 444.04 90.8 445.864 86.768C447.784 82.736 450.088 78.464 452.776 73.952C455.464 69.44 458.44 64.88 461.704 60.272C462.28 59.504 462.904 59.12 463.576 59.12C464.248 59.12 464.824 59.408 465.304 59.984C465.784 60.464 466.168 61.088 466.456 61.856C466.744 62.624 466.936 63.44 467.032 64.304C467.224 65.168 467.32 65.936 467.32 66.608C467.32 70.256 465.784 74.576 462.712 79.568C460.984 82.352 459.304 85.136 457.672 87.92C456.04 90.704 454.6 93.392 453.352 95.984C452.2 98.576 451.24 100.976 450.472 103.184C449.8 105.392 449.464 107.312 449.464 108.944C449.464 111.536 450.376 112.976 452.2 113.264C454.408 113.264 456.856 111.92 459.544 109.232C462.328 106.544 465.112 103.184 467.896 99.152C470.68 95.12 473.464 90.704 476.248 85.904C478.936 81.2 481.432 76.832 483.736 72.8C486.136 68.768 488.152 65.408 489.784 62.72C491.512 60.032 492.76 58.688 493.528 58.688C494.488 58.688 495.304 59.504 495.976 61.136C496.648 62.672 496.984 64.448 496.984 66.464C496.984 67.808 496.792 69.248 496.408 70.784C496.12 72.32 495.592 73.904 494.824 75.536C493.672 78.128 492.184 80.96 490.36 84.032C488.536 87.104 486.76 90.176 485.032 93.248C483.304 96.32 481.816 99.248 480.568 102.032C479.32 104.816 478.695 107.216 478.695 109.232C478.695 112.496 479.992 114.128 482.584 114.128C484.12 114.128 485.752 113.6 487.48 112.544C489.208 111.392 490.888 109.904 492.52 108.08C494.248 106.256 495.928 104.144 497.56 101.744C499.192 99.344 500.728 96.848 502.168 94.256C502.552 93.584 503.032 93.248 503.608 93.248C503.992 93.248 504.328 93.488 504.616 93.968C505 94.448 505.192 95.36 505.192 96.704C505.192 99.2 504.424 101.744 502.888 104.336C501.448 106.832 499.576 109.184 497.272 111.392C495.064 113.504 492.568 115.232 489.784 116.576C487.096 117.92 484.456 118.592 481.864 118.592C477.64 118.592 474.52 117.584 472.504 115.568C470.584 113.456 469.624 110.672 469.624 107.216C469.624 106.736 469.624 106.256 469.624 105.776C469.72 105.296 469.816 104.816 469.912 104.336ZM530.002 115.424C533.458 115.232 536.626 114.512 539.506 113.264C542.386 111.92 544.93 110.288 547.138 108.368C549.442 106.352 551.41 104.144 553.042 101.744C554.77 99.344 556.21 96.896 557.362 94.4C557.746 93.44 558.226 92.96 558.802 92.96C559.858 92.96 560.386 94.112 560.386 96.416C560.386 100.64 559.186 104.192 556.786 107.072C554.482 109.952 551.65 112.352 548.29 114.272C545.026 116.096 541.57 117.392 537.922 118.16C534.37 119.024 531.298 119.456 528.706 119.456C522.946 119.456 518.098 118.16 514.162 115.568C510.226 112.976 507.97 109.232 507.394 104.336C504.034 110.672 500.578 117.392 497.026 124.496C493.378 131.6 489.826 139.232 486.37 147.392C486.082 148.16 485.698 148.544 485.218 148.544C484.354 148.544 483.634 147.728 483.058 146.096C482.386 144.56 482.05 142.976 482.05 141.344C482.05 140.096 482.194 138.704 482.482 137.168C482.674 135.632 483.106 133.856 483.778 131.84C484.45 129.824 485.794 126.608 487.81 122.192C489.73 117.776 491.986 112.88 494.578 107.504C497.17 102.032 499.954 96.464 502.93 90.8C505.906 85.04 508.738 79.808 511.426 75.104C514.114 70.304 516.514 66.416 518.626 63.44C520.738 60.368 522.274 58.832 523.234 58.832C524.098 58.832 524.722 59.6 525.106 61.136C525.49 62.672 525.682 64.16 525.682 65.6V66.752C527.602 65.024 529.762 63.536 532.162 62.288C534.562 61.04 536.914 60.416 539.218 60.416C540.946 60.416 542.482 60.848 543.826 61.712C545.266 62.48 546.466 63.536 547.426 64.88C548.482 66.224 549.25 67.808 549.73 69.632C550.306 71.36 550.594 73.136 550.594 74.96C550.594 78.8 549.922 82.832 548.578 87.056C547.234 91.184 545.506 95.12 543.394 98.864C541.378 102.608 539.17 105.968 536.77 108.944C534.37 111.92 532.114 114.08 530.002 115.424ZM515.458 89.936C514.498 92.432 513.73 94.832 513.154 97.136C512.674 99.344 512.434 101.408 512.434 103.328C512.434 105.536 512.818 107.504 513.586 109.232C514.45 110.96 515.698 111.824 517.33 111.824C518.578 111.824 520.066 111.152 521.794 109.808C523.522 108.464 525.25 106.688 526.978 104.48C528.802 102.272 530.578 99.728 532.306 96.848C534.034 93.968 535.57 91.04 536.914 88.064C538.258 84.992 539.314 81.968 540.082 78.992C540.946 76.016 541.378 73.28 541.378 70.784C541.378 66.944 540.37 65.024 538.354 65.024C537.394 65.024 536.194 65.456 534.754 66.32C533.314 67.088 531.778 68.192 530.146 69.632C528.514 71.072 526.834 72.848 525.106 74.96C523.378 76.976 521.794 79.232 520.354 81.728L515.458 89.936Z" fill="black"/>
<path d="M27.752 73.104C29.288 71.28 31.064 69.456 33.08 67.632C35.096 65.712 37.16 63.984 39.272 62.448C41.384 60.912 43.352 59.712 45.176 58.848C47.096 57.888 48.728 57.408 50.072 57.408C51.992 57.408 53.48 58.464 54.536 60.576C55.688 62.592 56.264 64.848 56.264 67.344C56.264 68.976 56.072 70.368 55.688 71.52C57.416 69.792 59.24 68.112 61.16 66.48C63.176 64.848 65.144 63.456 67.064 62.304C69.08 61.056 70.952 60.048 72.68 59.28C74.408 58.512 75.848 58.128 77 58.128C78.632 58.128 79.832 58.896 80.6 60.432C81.464 61.968 81.896 63.84 81.896 66.048C81.896 67.296 81.752 68.592 81.464 69.936C81.272 71.28 80.936 72.624 80.456 73.968C79.496 76.368 78.152 78.912 76.424 81.6C74.696 84.384 72.968 87.168 71.24 89.952C69.512 92.736 68.024 95.472 66.776 98.16C65.528 100.752 64.904 103.056 64.904 105.072C64.904 107.184 65.384 108.864 66.344 110.112C67.4 111.264 68.744 111.84 70.376 111.84C71.816 111.84 73.304 111.264 74.84 110.112C76.376 108.96 77.912 107.472 79.448 105.648C80.984 103.824 82.472 101.76 83.912 99.456C85.448 97.056 86.936 94.608 88.376 92.112C88.76 91.44 89.192 91.104 89.672 91.104C90.152 91.104 90.536 91.296 90.824 91.68C91.112 91.968 91.256 92.64 91.256 93.696C91.256 96.384 90.536 99.072 89.096 101.76C87.656 104.448 85.784 106.896 83.48 109.104C81.272 111.216 78.776 112.944 75.992 114.288C73.304 115.632 70.664 116.304 68.072 116.304C63.464 116.304 59.96 115.152 57.56 112.848C55.256 110.544 54.104 107.52 54.104 103.776C54.104 101.856 54.536 99.696 55.4 97.296C56.36 94.896 57.512 92.448 58.856 89.952C60.2 87.36 61.688 84.768 63.32 82.176C64.952 79.68 66.44 77.376 67.784 75.264C69.128 73.056 70.232 71.184 71.096 69.648C72.056 68.016 72.536 66.864 72.536 66.192C72.536 65.904 72.296 65.76 71.816 65.76C70.952 65.76 69.272 66.48 66.776 67.92C64.376 69.264 61.064 72.048 56.84 76.272C50.792 82.32 45.848 88.656 42.008 95.28C38.264 101.904 34.856 108.672 31.784 115.584C31.208 116.64 30.584 117.168 29.912 117.168C29.24 117.168 28.376 116.4 27.32 114.864C26.264 113.424 25.736 111.36 25.736 108.672C25.736 105.792 26.552 102.288 28.184 98.16C29.24 95.376 30.728 92.352 32.648 89.088C34.664 85.728 36.68 82.464 38.696 79.296C40.616 76.224 42.296 73.488 43.736 71.088C45.176 68.688 45.896 67.008 45.896 66.048C45.896 65.568 45.608 65.328 45.032 65.328C43.784 65.328 41.624 66.384 38.552 68.496C35.576 70.512 31.928 73.872 27.608 78.576C23.288 83.28 19.4 88.752 15.944 94.992C12.488 101.232 9.32 107.808 6.44 114.72C6.056 115.68 5.576 116.16 5 116.16C4.424 116.16 3.896 115.872 3.416 115.296C2.84 114.816 2.36 114.192 1.976 113.424C1.592 112.656 1.304 111.84 1.112 110.976C0.824 110.016 0.68 109.152 0.68 108.384C0.68 106.944 1.304 104.448 2.552 100.896C3.8 97.248 5.48 93.072 7.592 88.368C9.8 83.568 12.344 78.528 15.224 73.248C18.2 67.872 21.416 62.688 24.872 57.696C25.352 56.928 25.832 56.544 26.312 56.544C26.792 56.544 27.224 56.832 27.608 57.408C27.992 57.888 28.328 58.512 28.616 59.28C28.904 60.048 29.096 60.912 29.192 61.872C29.384 62.736 29.48 63.552 29.48 64.32C29.48 67.2 28.904 70.128 27.752 73.104ZM99.6699 89.376C98.2299 93.6 97.5099 97.248 97.5099 100.32C97.5099 104.352 98.3739 107.328 100.102 109.248C101.83 111.168 104.182 112.128 107.158 112.128C109.942 112.128 112.678 111.504 115.366 110.256C118.054 108.912 120.598 107.28 122.998 105.36C125.398 103.344 127.606 101.136 129.622 98.736C131.638 96.336 133.366 93.984 134.806 91.68C135.094 91.104 135.478 90.816 135.958 90.816C136.342 90.816 136.678 91.008 136.966 91.392C137.35 91.776 137.542 92.4 137.542 93.264C137.542 96.144 136.486 98.976 134.374 101.76C132.262 104.544 129.622 107.04 126.454 109.248C123.286 111.36 119.83 113.04 116.086 114.288C112.438 115.632 109.03 116.304 105.862 116.304C99.7179 116.304 95.0139 114.48 91.7499 110.832C88.5819 107.088 86.9979 102.336 86.9979 96.576C86.9979 91.296 88.4379 85.776 91.3179 80.016C93.1419 76.272 95.2059 72.96 97.5099 70.08C99.8139 67.2 102.166 64.8 104.566 62.88C106.966 60.96 109.318 59.52 111.622 58.56C114.022 57.504 116.182 56.976 118.102 56.976C119.638 56.976 121.222 57.408 122.854 58.272C124.582 59.04 126.118 60.096 127.462 61.44C128.902 62.784 130.054 64.272 130.918 65.904C131.878 67.536 132.358 69.12 132.358 70.656C132.358 72.96 131.782 75.504 130.63 78.288C129.478 80.976 127.894 83.472 125.878 85.776C123.958 88.08 121.702 90.048 119.11 91.68C116.614 93.216 113.974 93.984 111.19 93.984C107.35 93.984 103.51 92.448 99.6699 89.376ZM100.966 86.208C102.598 87.264 104.23 87.792 105.862 87.792C108.166 87.792 110.422 86.88 112.63 85.056C114.838 83.136 116.806 80.976 118.534 78.576C120.358 76.08 121.798 73.632 122.854 71.232C123.91 68.736 124.438 66.864 124.438 65.616C124.438 64.176 123.766 63.456 122.422 63.456C121.366 63.456 119.974 63.984 118.246 65.04C116.614 66 114.838 67.392 112.918 69.216C111.094 70.944 109.222 73.056 107.302 75.552C105.382 78.048 103.654 80.784 102.118 83.76L101.542 85.056L100.966 86.208ZM192.307 101.04C189.523 105.456 185.683 109.152 180.787 112.128C175.891 115.104 170.419 117.696 164.371 119.904C162.163 124.992 159.763 130.272 157.171 135.744C154.675 141.312 152.035 146.448 149.251 151.152C146.467 155.856 143.587 159.696 140.611 162.672C137.635 165.744 134.707 167.28 131.827 167.28C130.675 167.28 129.571 166.848 128.515 165.984C127.363 165.12 126.307 164.016 125.347 162.672C124.387 161.328 123.619 159.744 123.043 157.92C122.467 156.192 122.179 154.416 122.179 152.592C122.179 148.56 123.091 144.768 124.915 141.216C126.739 137.76 129.187 134.592 132.259 131.712C135.235 128.832 138.595 126.288 142.339 124.08C146.179 121.872 150.115 120.048 154.147 118.608C154.915 116.976 155.635 115.296 156.307 113.568C156.883 111.936 157.555 110.304 158.323 108.672C156.211 110.784 153.907 112.512 151.411 113.856C149.011 115.2 146.467 115.872 143.779 115.872C139.939 115.872 137.011 114.576 134.995 111.984C133.075 109.392 132.115 106.08 132.115 102.048C132.115 98.976 132.739 95.568 133.987 91.824C135.235 88.08 137.107 84.336 139.603 80.592C142.387 76.464 145.171 72.912 147.955 69.936C150.835 66.96 153.571 64.56 156.163 62.736C158.755 60.912 161.203 59.568 163.507 58.704C165.907 57.84 168.019 57.408 169.843 57.408C172.819 57.408 174.979 58.368 176.323 60.288C177.667 62.208 178.339 64.416 178.339 66.912C178.915 65.952 179.491 64.896 180.067 63.744C180.643 62.688 181.219 61.68 181.795 60.72C182.371 59.76 182.947 58.944 183.523 58.272C184.099 57.6 184.627 57.264 185.107 57.264C186.067 57.264 186.883 58.08 187.555 59.712C188.323 61.248 188.707 63.024 188.707 65.04C188.707 66.768 187.987 69.36 186.547 72.816C185.203 76.176 183.427 80.064 181.219 84.48C179.107 88.896 176.803 93.6 174.307 98.592C171.715 103.68 169.267 108.816 166.963 114C173.011 110.928 178.099 107.52 182.227 103.776C186.355 100.032 189.859 96.24 192.739 92.4C193.123 91.824 193.603 91.536 194.179 91.536C194.371 91.536 194.611 91.68 194.899 91.968C195.187 92.256 195.331 92.784 195.331 93.552C195.331 95.376 194.323 97.872 192.307 101.04ZM165.811 89.808C168.787 84.624 170.947 80.256 172.291 76.704C173.635 73.152 174.307 70.368 174.307 68.352C174.307 65.952 173.443 64.752 171.715 64.752C170.563 64.752 169.027 65.376 167.107 66.624C165.187 67.872 163.123 69.6 160.915 71.808C158.707 73.92 156.451 76.368 154.147 79.152C151.939 81.936 149.923 84.864 148.099 87.936C146.371 90.912 144.931 93.984 143.779 97.152C142.627 100.32 142.051 103.296 142.051 106.08C142.051 109.632 143.203 111.408 145.507 111.408C148.291 111.408 151.459 109.392 155.011 105.36C158.563 101.328 162.163 96.144 165.811 89.808ZM151.699 124.512C147.667 126.912 144.163 129.6 141.187 132.576C138.307 135.648 135.907 138.672 133.987 141.648C132.163 144.72 130.819 147.552 129.955 150.144C129.091 152.832 128.659 154.944 128.659 156.48C128.659 157.152 128.755 157.728 128.947 158.208C129.043 158.688 129.283 158.928 129.667 158.928C130.435 158.928 131.587 158.064 133.123 156.336C134.755 154.704 136.579 152.352 138.595 149.28C140.611 146.304 142.723 142.704 144.931 138.48C147.235 134.256 149.491 129.6 151.699 124.512ZM237 67.2C237.672 66.048 238.344 64.848 239.016 63.6C239.688 62.352 240.312 61.248 240.888 60.288C241.56 59.232 242.136 58.416 242.616 57.84C243.192 57.168 243.72 56.832 244.2 56.832C244.968 56.832 245.544 57.216 245.928 57.984C246.408 58.752 246.744 59.616 246.936 60.576C247.224 61.44 247.416 62.304 247.512 63.168C247.608 64.032 247.656 64.512 247.656 64.608C247.656 66.912 246.696 69.936 244.776 73.68C242.856 77.328 240.744 81.216 238.44 85.344C236.04 89.472 233.88 93.6 231.96 97.728C230.04 101.76 229.08 105.264 229.08 108.24C229.08 111.024 230.184 112.416 232.392 112.416C233.832 112.416 235.368 111.888 237 110.832C238.728 109.68 240.456 108.192 242.184 106.368C243.912 104.448 245.592 102.288 247.224 99.888C248.856 97.488 250.344 94.992 251.688 92.4C252.072 91.728 252.504 91.392 252.984 91.392C253.848 91.392 254.28 92.4 254.28 94.416C254.28 96.72 253.608 99.168 252.264 101.76C251.016 104.352 249.336 106.752 247.224 108.96C245.112 111.168 242.76 112.992 240.168 114.432C237.672 115.872 235.128 116.592 232.536 116.592C228.312 116.592 225.192 115.488 223.176 113.28C221.16 110.976 220.152 108.144 220.152 104.784C217.848 107.76 215.112 110.4 211.944 112.704C208.872 114.912 205.608 116.016 202.152 116.016C198.312 116.016 195.384 114.72 193.368 112.128C191.352 109.44 190.344 106.032 190.344 101.904C190.344 98.736 190.968 95.28 192.216 91.536C193.464 87.792 195.384 84.048 197.976 80.304C203.832 71.856 209.4 65.856 214.68 62.304C220.056 58.656 224.568 56.832 228.216 56.832C231.384 56.832 233.64 57.888 234.984 60C236.328 62.016 237 64.416 237 67.2ZM224.472 89.52C227.448 84.336 229.608 79.968 230.952 76.416C232.296 72.768 232.968 69.936 232.968 67.92C232.968 65.712 232.2 64.512 230.664 64.32C229.032 64.32 226.536 65.664 223.176 68.352C219.912 70.944 216.552 74.304 213.096 78.432C209.736 82.56 206.76 87.072 204.168 91.968C201.672 96.864 200.424 101.568 200.424 106.08C200.424 107.712 200.712 109.008 201.288 109.968C201.864 110.832 202.68 111.264 203.736 111.264C206.712 111.264 209.976 109.248 213.528 105.216C217.176 101.184 220.824 95.952 224.472 89.52ZM275.192 64.032C278.168 61.152 281.144 58.944 284.12 57.408C287.096 55.872 289.592 55.104 291.608 55.104C292.664 55.104 293.768 55.44 294.92 56.112C296.072 56.784 297.128 57.744 298.088 58.992C299.048 60.24 299.816 61.728 300.392 63.456C301.064 65.088 301.4 66.912 301.4 68.928C301.4 70.944 300.776 73.056 299.528 75.264C298.28 77.376 296.552 79.392 294.344 81.312C292.232 83.232 289.64 85.008 286.568 86.64C283.592 88.272 280.328 89.616 276.776 90.672C277.064 96.816 278.168 101.808 280.088 105.648C282.008 109.392 284.456 111.264 287.432 111.264C288.872 111.264 290.408 110.64 292.04 109.392C293.672 108.144 295.256 106.608 296.792 104.784C298.424 102.864 299.912 100.752 301.256 98.448C302.696 96.144 303.944 93.936 305 91.824C305.576 90.96 306.104 90.528 306.584 90.528C306.968 90.528 307.304 90.816 307.592 91.392C307.976 91.968 308.168 92.784 308.168 93.84C308.168 94.8 307.688 96.48 306.728 98.88C305.864 101.28 304.424 103.728 302.408 106.224C300.488 108.624 298.04 110.784 295.064 112.704C292.184 114.624 288.728 115.584 284.696 115.584C282.104 115.584 279.704 115.056 277.496 114C275.288 112.848 273.368 111.168 271.736 108.96C270.104 106.656 268.808 103.776 267.848 100.32C266.888 96.768 266.408 92.592 266.408 87.792C266.408 86.544 266.552 85.728 266.84 85.344C267.224 84.864 268.088 84.384 269.432 83.904C273.464 82.56 277.016 80.976 280.088 79.152C283.256 77.232 285.944 75.312 288.152 73.392C290.36 71.472 292.04 69.6 293.192 67.776C294.344 65.952 294.92 64.368 294.92 63.024C294.92 61.296 293.912 60.432 291.896 60.432C288.728 60.432 284.456 62.496 279.08 66.624C276.392 68.64 273.896 71.04 271.592 73.824C269.384 76.512 267.176 79.728 264.968 83.472C262.856 87.216 260.648 91.584 258.344 96.576C256.04 101.568 253.496 107.376 250.712 114C250.424 114.672 249.992 115.008 249.416 115.008C248.552 115.008 247.832 114.336 247.256 112.992C246.584 111.552 246.248 109.92 246.248 108.096C246.248 106.848 246.392 105.456 246.68 103.92C246.872 102.288 247.304 100.464 247.976 98.448C248.648 96.24 249.8 93.216 251.432 89.376C253.16 85.44 255.176 81.072 257.48 76.272C259.784 71.472 262.28 66.432 264.968 61.152C267.752 55.776 270.536 50.592 273.32 45.6C276.104 40.512 278.84 35.808 281.528 31.488C284.216 27.072 286.616 23.424 288.728 20.544C289.4 19.584 290.072 19.104 290.744 19.104C291.512 19.104 292.184 19.872 292.76 21.408C293.336 22.944 293.624 24.432 293.624 25.872C293.624 27.6 293.096 29.808 292.04 32.496C290.984 35.088 289.592 38.064 287.864 41.424C286.136 44.784 284.168 48.384 281.96 52.224C279.752 56.064 277.496 60 275.192 64.032ZM313.842 89.376C312.402 93.6 311.682 97.248 311.682 100.32C311.682 104.352 312.546 107.328 314.274 109.248C316.002 111.168 318.354 112.128 321.33 112.128C324.114 112.128 326.85 111.504 329.538 110.256C332.226 108.912 334.77 107.28 337.17 105.36C339.57 103.344 341.778 101.136 343.794 98.736C345.81 96.336 347.538 93.984 348.978 91.68C349.266 91.104 349.65 90.816 350.13 90.816C350.514 90.816 350.85 91.008 351.138 91.392C351.522 91.776 351.714 92.4 351.714 93.264C351.714 96.144 350.658 98.976 348.546 101.76C346.434 104.544 343.794 107.04 340.626 109.248C337.458 111.36 334.002 113.04 330.258 114.288C326.61 115.632 323.202 116.304 320.034 116.304C313.89 116.304 309.186 114.48 305.922 110.832C302.754 107.088 301.17 102.336 301.17 96.576C301.17 91.296 302.61 85.776 305.49 80.016C307.314 76.272 309.378 72.96 311.682 70.08C313.986 67.2 316.338 64.8 318.738 62.88C321.138 60.96 323.49 59.52 325.794 58.56C328.194 57.504 330.354 56.976 332.274 56.976C333.81 56.976 335.394 57.408 337.026 58.272C338.754 59.04 340.29 60.096 341.634 61.44C343.074 62.784 344.226 64.272 345.09 65.904C346.05 67.536 346.53 69.12 346.53 70.656C346.53 72.96 345.954 75.504 344.802 78.288C343.65 80.976 342.066 83.472 340.05 85.776C338.13 88.08 335.874 90.048 333.282 91.68C330.786 93.216 328.146 93.984 325.362 93.984C321.522 93.984 317.682 92.448 313.842 89.376ZM315.138 86.208C316.77 87.264 318.402 87.792 320.034 87.792C322.338 87.792 324.594 86.88 326.802 85.056C329.01 83.136 330.978 80.976 332.706 78.576C334.53 76.08 335.97 73.632 337.026 71.232C338.082 68.736 338.61 66.864 338.61 65.616C338.61 64.176 337.938 63.456 336.594 63.456C335.538 63.456 334.146 63.984 332.418 65.04C330.786 66 329.01 67.392 327.09 69.216C325.266 70.944 323.394 73.056 321.474 75.552C319.554 78.048 317.826 80.784 316.29 83.76L315.714 85.056L315.138 86.208ZM364.578 57.984C362.658 57.984 361.074 57.744 359.826 57.264C358.578 56.784 357.522 56.256 356.658 55.68C355.89 55.104 355.314 54.528 354.93 53.952C354.642 53.28 354.498 52.8 354.498 52.512C354.498 52.128 355.026 51.84 356.082 51.648C357.234 51.456 358.578 51.312 360.114 51.216C361.65 51.12 363.234 51.072 364.866 51.072C366.402 51.072 367.698 50.976 368.754 50.784C370.194 48.192 371.538 45.744 372.786 43.44C374.13 41.136 375.378 39.12 376.53 37.392C377.682 35.664 378.69 34.272 379.554 33.216C380.418 32.16 381.09 31.632 381.57 31.632C382.434 31.632 383.058 32.4 383.442 33.936C383.922 35.472 384.162 36.912 384.162 38.256C384.162 41.328 383.202 44.976 381.282 49.2C383.01 49.2 384.45 49.44 385.602 49.92C386.85 50.304 387.81 50.832 388.482 51.504C389.25 52.08 389.778 52.704 390.066 53.376C390.45 54.048 390.642 54.576 390.642 54.96C390.642 55.824 389.922 56.256 388.482 56.256C388.002 56.16 387.474 56.112 386.898 56.112C386.418 56.112 385.938 56.112 385.458 56.112C384.114 56.112 382.722 56.208 381.282 56.4C379.938 56.496 378.594 56.64 377.25 56.832C375.426 59.904 373.266 63.552 370.77 67.776C368.178 72 365.73 76.32 363.426 80.736C361.122 85.152 359.154 89.424 357.522 93.552C355.986 97.68 355.218 101.136 355.218 103.92C355.218 106.416 355.698 108.384 356.658 109.824C357.618 111.264 359.01 112.08 360.834 112.272C362.466 112.272 364.146 111.744 365.874 110.688C367.698 109.536 369.474 108 371.202 106.08C373.026 104.16 374.754 101.952 376.386 99.456C378.018 96.96 379.506 94.32 380.85 91.536C381.522 90.576 382.098 90.096 382.578 90.096C383.058 90.096 383.442 90.432 383.73 91.104C384.018 91.776 384.162 92.592 384.162 93.552C384.162 94.512 383.97 95.472 383.586 96.432C383.298 97.392 382.914 98.496 382.434 99.744C381.954 100.8 381.042 102.24 379.698 104.064C378.45 105.888 376.818 107.712 374.802 109.536C372.882 111.36 370.674 112.896 368.178 114.144C365.682 115.488 362.994 116.16 360.114 116.16C356.466 116.16 353.298 114.816 350.61 112.128C347.922 109.344 346.578 105.504 346.578 100.608C346.578 96 348.258 90.192 351.618 83.184C355.074 76.176 359.394 67.776 364.578 57.984ZM430.799 77.712C432.335 78.48 433.583 79.536 434.543 80.88C435.599 82.224 436.127 83.472 436.127 84.624C436.127 85.392 435.791 85.776 435.119 85.776C433.967 85.776 432.671 85.68 431.231 85.488C429.791 85.296 428.303 85.2 426.767 85.2C425.423 87.504 423.839 90.528 422.015 94.272C420.287 97.92 418.607 101.472 416.975 104.928C415.343 108.48 413.855 111.504 412.511 114C411.263 116.592 410.495 117.888 410.207 117.888C409.343 117.888 408.479 116.976 407.615 115.152C406.847 113.424 406.463 111.648 406.463 109.824C406.463 107.232 407.183 104.064 408.623 100.32C410.159 96.576 412.223 91.872 414.815 86.208C411.167 86.688 407.471 87.264 403.727 87.936C400.079 88.512 396.767 89.184 393.791 89.952C392.831 90.144 392.159 90.24 391.775 90.24C390.911 90.24 389.951 89.712 388.895 88.656C387.935 87.6 387.023 86.4 386.159 85.056C385.295 83.712 384.575 82.416 383.999 81.168C383.519 79.92 383.279 79.056 383.279 78.576C383.279 77.808 383.663 76.944 384.431 75.984C387.407 72.432 391.247 68.496 395.951 64.176C400.655 59.76 405.695 55.392 411.071 51.072C416.447 46.656 421.871 42.432 427.343 38.4C432.911 34.272 437.999 30.72 442.607 27.744C443.567 27.072 444.575 26.736 445.631 26.736C446.111 26.736 446.543 26.832 446.927 27.024C447.407 27.216 447.839 27.6 448.223 28.176L452.255 34.944C453.023 36.48 453.407 37.584 453.407 38.256C453.407 39.024 452.687 40.704 451.247 43.296C449.807 45.792 447.983 48.864 445.775 52.512C443.471 56.16 440.975 60.192 438.287 64.608C435.695 69.024 433.199 73.392 430.799 77.712ZM440.735 40.272C436.511 43.152 432.143 46.272 427.631 49.632C423.119 52.896 418.655 56.256 414.239 59.712C409.823 63.168 405.599 66.672 401.567 70.224C397.631 73.776 394.079 77.232 390.911 80.592C395.327 79.44 400.079 78.432 405.167 77.568C410.351 76.704 415.247 76.176 419.855 75.984C423.023 69.84 426.431 63.648 430.079 57.408C433.727 51.168 437.279 45.456 440.735 40.272ZM466.912 102.336C465.76 103.968 464.416 105.6 462.88 107.232C461.44 108.768 459.856 110.208 458.128 111.552C456.4 112.8 454.624 113.808 452.8 114.576C450.976 115.44 449.104 115.872 447.184 115.872C443.44 115.872 440.8 114.816 439.264 112.704C437.823 110.592 437.103 108 437.103 104.928C437.103 102.432 437.631 99.456 438.688 96C439.648 92.544 441.04 88.8 442.864 84.768C444.784 80.736 447.088 76.464 449.776 71.952C452.464 67.44 455.44 62.88 458.704 58.272C459.28 57.504 459.904 57.12 460.576 57.12C461.248 57.12 461.824 57.408 462.304 57.984C462.784 58.464 463.168 59.088 463.456 59.856C463.744 60.624 463.936 61.44 464.032 62.304C464.224 63.168 464.32 63.936 464.32 64.608C464.32 68.256 462.784 72.576 459.712 77.568C457.984 80.352 456.304 83.136 454.672 85.92C453.04 88.704 451.6 91.392 450.352 93.984C449.2 96.576 448.24 98.976 447.472 101.184C446.8 103.392 446.464 105.312 446.464 106.944C446.464 109.536 447.376 110.976 449.2 111.264C451.408 111.264 453.856 109.92 456.544 107.232C459.328 104.544 462.112 101.184 464.896 97.152C467.68 93.12 470.464 88.704 473.248 83.904C475.936 79.2 478.432 74.832 480.736 70.8C483.136 66.768 485.152 63.408 486.784 60.72C488.512 58.032 489.76 56.688 490.528 56.688C491.488 56.688 492.304 57.504 492.976 59.136C493.648 60.672 493.984 62.448 493.984 64.464C493.984 65.808 493.792 67.248 493.408 68.784C493.12 70.32 492.592 71.904 491.824 73.536C490.672 76.128 489.184 78.96 487.36 82.032C485.536 85.104 483.76 88.176 482.032 91.248C480.304 94.32 478.816 97.248 477.568 100.032C476.32 102.816 475.695 105.216 475.695 107.232C475.695 110.496 476.992 112.128 479.584 112.128C481.12 112.128 482.752 111.6 484.48 110.544C486.208 109.392 487.888 107.904 489.52 106.08C491.248 104.256 492.928 102.144 494.56 99.744C496.192 97.344 497.728 94.848 499.168 92.256C499.552 91.584 500.032 91.248 500.608 91.248C500.992 91.248 501.328 91.488 501.616 91.968C502 92.448 502.192 93.36 502.192 94.704C502.192 97.2 501.424 99.744 499.888 102.336C498.448 104.832 496.576 107.184 494.272 109.392C492.064 111.504 489.568 113.232 486.784 114.576C484.096 115.92 481.456 116.592 478.864 116.592C474.64 116.592 471.52 115.584 469.504 113.568C467.584 111.456 466.624 108.672 466.624 105.216C466.624 104.736 466.624 104.256 466.624 103.776C466.72 103.296 466.816 102.816 466.912 102.336ZM527.002 113.424C530.458 113.232 533.626 112.512 536.506 111.264C539.386 109.92 541.93 108.288 544.138 106.368C546.442 104.352 548.41 102.144 550.042 99.744C551.77 97.344 553.21 94.896 554.362 92.4C554.746 91.44 555.226 90.96 555.802 90.96C556.858 90.96 557.386 92.112 557.386 94.416C557.386 98.64 556.186 102.192 553.786 105.072C551.482 107.952 548.65 110.352 545.29 112.272C542.026 114.096 538.57 115.392 534.922 116.16C531.37 117.024 528.298 117.456 525.706 117.456C519.946 117.456 515.098 116.16 511.162 113.568C507.226 110.976 504.97 107.232 504.394 102.336C501.034 108.672 497.578 115.392 494.026 122.496C490.378 129.6 486.826 137.232 483.37 145.392C483.082 146.16 482.698 146.544 482.218 146.544C481.354 146.544 480.634 145.728 480.058 144.096C479.386 142.56 479.05 140.976 479.05 139.344C479.05 138.096 479.194 136.704 479.482 135.168C479.674 133.632 480.106 131.856 480.778 129.84C481.45 127.824 482.794 124.608 484.81 120.192C486.73 115.776 488.986 110.88 491.578 105.504C494.17 100.032 496.954 94.464 499.93 88.8C502.906 83.04 505.738 77.808 508.426 73.104C511.114 68.304 513.514 64.416 515.626 61.44C517.738 58.368 519.274 56.832 520.234 56.832C521.098 56.832 521.722 57.6 522.106 59.136C522.49 60.672 522.682 62.16 522.682 63.6V64.752C524.602 63.024 526.762 61.536 529.162 60.288C531.562 59.04 533.914 58.416 536.218 58.416C537.946 58.416 539.482 58.848 540.826 59.712C542.266 60.48 543.466 61.536 544.426 62.88C545.482 64.224 546.25 65.808 546.73 67.632C547.306 69.36 547.594 71.136 547.594 72.96C547.594 76.8 546.922 80.832 545.578 85.056C544.234 89.184 542.506 93.12 540.394 96.864C538.378 100.608 536.17 103.968 533.77 106.944C531.37 109.92 529.114 112.08 527.002 113.424ZM512.458 87.936C511.498 90.432 510.73 92.832 510.154 95.136C509.674 97.344 509.434 99.408 509.434 101.328C509.434 103.536 509.818 105.504 510.586 107.232C511.45 108.96 512.698 109.824 514.33 109.824C515.578 109.824 517.066 109.152 518.794 107.808C520.522 106.464 522.25 104.688 523.978 102.48C525.802 100.272 527.578 97.728 529.306 94.848C531.034 91.968 532.57 89.04 533.914 86.064C535.258 82.992 536.314 79.968 537.082 76.992C537.946 74.016 538.378 71.28 538.378 68.784C538.378 64.944 537.37 63.024 535.354 63.024C534.394 63.024 533.194 63.456 531.754 64.32C530.314 65.088 528.778 66.192 527.146 67.632C525.514 69.072 523.834 70.848 522.106 72.96C520.378 74.976 518.794 77.232 517.354 79.728L512.458 87.936Z" fill="white"/>
</svg>
