<svg width="561" height="569" viewBox="0 0 561 569" fill="none" xmlns="http://www.w3.org/2000/svg">
<path d="M30.752 471.104C32.288 469.28 34.064 467.456 36.08 465.632C38.096 463.712 40.16 461.984 42.272 460.448C44.384 458.912 46.352 457.712 48.176 456.848C50.096 455.888 51.728 455.408 53.072 455.408C54.992 455.408 56.48 456.464 57.536 458.576C58.688 460.592 59.264 462.848 59.264 465.344C59.264 466.976 59.072 468.368 58.688 469.52C60.416 467.792 62.24 466.112 64.16 464.48C66.176 462.848 68.144 461.456 70.064 460.304C72.08 459.056 73.952 458.048 75.68 457.28C77.408 456.512 78.848 456.128 80 456.128C81.632 456.128 82.832 456.896 83.6 458.432C84.464 459.968 84.896 461.84 84.896 464.048C84.896 465.296 84.752 466.592 84.464 467.936C84.272 469.28 83.936 470.624 83.456 471.968C82.496 474.368 81.152 476.912 79.424 479.6C77.696 482.384 75.968 485.168 74.24 487.952C72.512 490.736 71.024 493.472 69.776 496.16C68.528 498.752 67.904 501.056 67.904 503.072C67.904 505.184 68.384 506.864 69.344 508.112C70.4 509.264 71.744 509.84 73.376 509.84C74.816 509.84 76.304 509.264 77.84 508.112C79.376 506.96 80.912 505.472 82.448 503.648C83.984 501.824 85.472 499.76 86.912 497.456C88.448 495.056 89.936 492.608 91.376 490.112C91.76 489.44 92.192 489.104 92.672 489.104C93.152 489.104 93.536 489.296 93.824 489.68C94.112 489.968 94.256 490.64 94.256 491.696C94.256 494.384 93.536 497.072 92.096 499.76C90.656 502.448 88.784 504.896 86.48 507.104C84.272 509.216 81.776 510.944 78.992 512.288C76.304 513.632 73.664 514.304 71.072 514.304C66.464 514.304 62.96 513.152 60.56 510.848C58.256 508.544 57.104 505.52 57.104 501.776C57.104 499.856 57.536 497.696 58.4 495.296C59.36 492.896 60.512 490.448 61.856 487.952C63.2 485.36 64.688 482.768 66.32 480.176C67.952 477.68 69.44 475.376 70.784 473.264C72.128 471.056 73.232 469.184 74.096 467.648C75.056 466.016 75.536 464.864 75.536 464.192C75.536 463.904 75.296 463.76 74.816 463.76C73.952 463.76 72.272 464.48 69.776 465.92C67.376 467.264 64.064 470.048 59.84 474.272C53.792 480.32 48.848 486.656 45.008 493.28C41.264 499.904 37.856 506.672 34.784 513.584C34.208 514.64 33.584 515.168 32.912 515.168C32.24 515.168 31.376 514.4 30.32 512.864C29.264 511.424 28.736 509.36 28.736 506.672C28.736 503.792 29.552 500.288 31.184 496.16C32.24 493.376 33.728 490.352 35.648 487.088C37.664 483.728 39.68 480.464 41.696 477.296C43.616 474.224 45.296 471.488 46.736 469.088C48.176 466.688 48.896 465.008 48.896 464.048C48.896 463.568 48.608 463.328 48.032 463.328C46.784 463.328 44.624 464.384 41.552 466.496C38.576 468.512 34.928 471.872 30.608 476.576C26.288 481.28 22.4 486.752 18.944 492.992C15.488 499.232 12.32 505.808 9.44 512.72C9.056 513.68 8.576 514.16 8 514.16C7.424 514.16 6.896 513.872 6.416 513.296C5.84 512.816 5.36 512.192 4.976 511.424C4.592 510.656 4.304 509.84 4.112 508.976C3.824 508.016 3.68 507.152 3.68 506.384C3.68 504.944 4.304 502.448 5.552 498.896C6.8 495.248 8.48 491.072 10.592 486.368C12.8 481.568 15.344 476.528 18.224 471.248C21.2 465.872 24.416 460.688 27.872 455.696C28.352 454.928 28.832 454.544 29.312 454.544C29.792 454.544 30.224 454.832 30.608 455.408C30.992 455.888 31.328 456.512 31.616 457.28C31.904 458.048 32.096 458.912 32.192 459.872C32.384 460.736 32.48 461.552 32.48 462.32C32.48 465.2 31.904 468.128 30.752 471.104ZM102.67 487.376C101.23 491.6 100.51 495.248 100.51 498.32C100.51 502.352 101.374 505.328 103.102 507.248C104.83 509.168 107.182 510.128 110.158 510.128C112.942 510.128 115.678 509.504 118.366 508.256C121.054 506.912 123.598 505.28 125.998 503.36C128.398 501.344 130.606 499.136 132.622 496.736C134.638 494.336 136.366 491.984 137.806 489.68C138.094 489.104 138.478 488.816 138.958 488.816C139.342 488.816 139.678 489.008 139.966 489.392C140.35 489.776 140.542 490.4 140.542 491.264C140.542 494.144 139.486 496.976 137.374 499.76C135.262 502.544 132.622 505.04 129.454 507.248C126.286 509.36 122.83 511.04 119.086 512.288C115.438 513.632 112.03 514.304 108.862 514.304C102.718 514.304 98.0139 512.48 94.7499 508.832C91.5819 505.088 89.9979 500.336 89.9979 494.576C89.9979 489.296 91.4379 483.776 94.3179 478.016C96.1419 474.272 98.2059 470.96 100.51 468.08C102.814 465.2 105.166 462.8 107.566 460.88C109.966 458.96 112.318 457.52 114.622 456.56C117.022 455.504 119.182 454.976 121.102 454.976C122.638 454.976 124.222 455.408 125.854 456.272C127.582 457.04 129.118 458.096 130.462 459.44C131.902 460.784 133.054 462.272 133.918 463.904C134.878 465.536 135.358 467.12 135.358 468.656C135.358 470.96 134.782 473.504 133.63 476.288C132.478 478.976 130.894 481.472 128.878 483.776C126.958 486.08 124.702 488.048 122.11 489.68C119.614 491.216 116.974 491.984 114.19 491.984C110.35 491.984 106.51 490.448 102.67 487.376ZM103.966 484.208C105.598 485.264 107.23 485.792 108.862 485.792C111.166 485.792 113.422 484.88 115.63 483.056C117.838 481.136 119.806 478.976 121.534 476.576C123.358 474.08 124.798 471.632 125.854 469.232C126.91 466.736 127.438 464.864 127.438 463.616C127.438 462.176 126.766 461.456 125.422 461.456C124.366 461.456 122.974 461.984 121.246 463.04C119.614 464 117.838 465.392 115.918 467.216C114.094 468.944 112.222 471.056 110.302 473.552C108.382 476.048 106.654 478.784 105.118 481.76L104.542 483.056L103.966 484.208ZM195.307 499.04C192.523 503.456 188.683 507.152 183.787 510.128C178.891 513.104 173.419 515.696 167.371 517.904C165.163 522.992 162.763 528.272 160.171 533.744C157.675 539.312 155.035 544.448 152.251 549.152C149.467 553.856 146.587 557.696 143.611 560.672C140.635 563.744 137.707 565.28 134.827 565.28C133.675 565.28 132.571 564.848 131.515 563.984C130.363 563.12 129.307 562.016 128.347 560.672C127.387 559.328 126.619 557.744 126.043 555.92C125.467 554.192 125.179 552.416 125.179 550.592C125.179 546.56 126.091 542.768 127.915 539.216C129.739 535.76 132.187 532.592 135.259 529.712C138.235 526.832 141.595 524.288 145.339 522.08C149.179 519.872 153.115 518.048 157.147 516.608C157.915 514.976 158.635 513.296 159.307 511.568C159.883 509.936 160.555 508.304 161.323 506.672C159.211 508.784 156.907 510.512 154.411 511.856C152.011 513.2 149.467 513.872 146.779 513.872C142.939 513.872 140.011 512.576 137.995 509.984C136.075 507.392 135.115 504.08 135.115 500.048C135.115 496.976 135.739 493.568 136.987 489.824C138.235 486.08 140.107 482.336 142.603 478.592C145.387 474.464 148.171 470.912 150.955 467.936C153.835 464.96 156.571 462.56 159.163 460.736C161.755 458.912 164.203 457.568 166.507 456.704C168.907 455.84 171.019 455.408 172.843 455.408C175.819 455.408 177.979 456.368 179.323 458.288C180.667 460.208 181.339 462.416 181.339 464.912C181.915 463.952 182.491 462.896 183.067 461.744C183.643 460.688 184.219 459.68 184.795 458.72C185.371 457.76 185.947 456.944 186.523 456.272C187.099 455.6 187.627 455.264 188.107 455.264C189.067 455.264 189.883 456.08 190.555 457.712C191.323 459.248 191.707 461.024 191.707 463.04C191.707 464.768 190.987 467.36 189.547 470.816C188.203 474.176 186.427 478.064 184.219 482.48C182.107 486.896 179.803 491.6 177.307 496.592C174.715 501.68 172.267 506.816 169.963 512C176.011 508.928 181.099 505.52 185.227 501.776C189.355 498.032 192.859 494.24 195.739 490.4C196.123 489.824 196.603 489.536 197.179 489.536C197.371 489.536 197.611 489.68 197.899 489.968C198.187 490.256 198.331 490.784 198.331 491.552C198.331 493.376 197.323 495.872 195.307 499.04ZM168.811 487.808C171.787 482.624 173.947 478.256 175.291 474.704C176.635 471.152 177.307 468.368 177.307 466.352C177.307 463.952 176.443 462.752 174.715 462.752C173.563 462.752 172.027 463.376 170.107 464.624C168.187 465.872 166.123 467.6 163.915 469.808C161.707 471.92 159.451 474.368 157.147 477.152C154.939 479.936 152.923 482.864 151.099 485.936C149.371 488.912 147.931 491.984 146.779 495.152C145.627 498.32 145.051 501.296 145.051 504.08C145.051 507.632 146.203 509.408 148.507 509.408C151.291 509.408 154.459 507.392 158.011 503.36C161.563 499.328 165.163 494.144 168.811 487.808ZM154.699 522.512C150.667 524.912 147.163 527.6 144.187 530.576C141.307 533.648 138.907 536.672 136.987 539.648C135.163 542.72 133.819 545.552 132.955 548.144C132.091 550.832 131.659 552.944 131.659 554.48C131.659 555.152 131.755 555.728 131.947 556.208C132.043 556.688 132.283 556.928 132.667 556.928C133.435 556.928 134.587 556.064 136.123 554.336C137.755 552.704 139.579 550.352 141.595 547.28C143.611 544.304 145.723 540.704 147.931 536.48C150.235 532.256 152.491 527.6 154.699 522.512ZM240 465.2C240.672 464.048 241.344 462.848 242.016 461.6C242.688 460.352 243.312 459.248 243.888 458.288C244.56 457.232 245.136 456.416 245.616 455.84C246.192 455.168 246.72 454.832 247.2 454.832C247.968 454.832 248.544 455.216 248.928 455.984C249.408 456.752 249.744 457.616 249.936 458.576C250.224 459.44 250.416 460.304 250.512 461.168C250.608 462.032 250.656 462.512 250.656 462.608C250.656 464.912 249.696 467.936 247.776 471.68C245.856 475.328 243.744 479.216 241.44 483.344C239.04 487.472 236.88 491.6 234.96 495.728C233.04 499.76 232.08 503.264 232.08 506.24C232.08 509.024 233.184 510.416 235.392 510.416C236.832 510.416 238.368 509.888 240 508.832C241.728 507.68 243.456 506.192 245.184 504.368C246.912 502.448 248.592 500.288 250.224 497.888C251.856 495.488 253.344 492.992 254.688 490.4C255.072 489.728 255.504 489.392 255.984 489.392C256.848 489.392 257.28 490.4 257.28 492.416C257.28 494.72 256.608 497.168 255.264 499.76C254.016 502.352 252.336 504.752 250.224 506.96C248.112 509.168 245.76 510.992 243.168 512.432C240.672 513.872 238.128 514.592 235.536 514.592C231.312 514.592 228.192 513.488 226.176 511.28C224.16 508.976 223.152 506.144 223.152 502.784C220.848 505.76 218.112 508.4 214.944 510.704C211.872 512.912 208.608 514.016 205.152 514.016C201.312 514.016 198.384 512.72 196.368 510.128C194.352 507.44 193.344 504.032 193.344 499.904C193.344 496.736 193.968 493.28 195.216 489.536C196.464 485.792 198.384 482.048 200.976 478.304C206.832 469.856 212.4 463.856 217.68 460.304C223.056 456.656 227.568 454.832 231.216 454.832C234.384 454.832 236.64 455.888 237.984 458C239.328 460.016 240 462.416 240 465.2ZM227.472 487.52C230.448 482.336 232.608 477.968 233.952 474.416C235.296 470.768 235.968 467.936 235.968 465.92C235.968 463.712 235.2 462.512 233.664 462.32C232.032 462.32 229.536 463.664 226.176 466.352C222.912 468.944 219.552 472.304 216.096 476.432C212.736 480.56 209.76 485.072 207.168 489.968C204.672 494.864 203.424 499.568 203.424 504.08C203.424 505.712 203.712 507.008 204.288 507.968C204.864 508.832 205.68 509.264 206.736 509.264C209.712 509.264 212.976 507.248 216.528 503.216C220.176 499.184 223.824 493.952 227.472 487.52ZM278.192 462.032C281.168 459.152 284.144 456.944 287.12 455.408C290.096 453.872 292.592 453.104 294.608 453.104C295.664 453.104 296.768 453.44 297.92 454.112C299.072 454.784 300.128 455.744 301.088 456.992C302.048 458.24 302.816 459.728 303.392 461.456C304.064 463.088 304.4 464.912 304.4 466.928C304.4 468.944 303.776 471.056 302.528 473.264C301.28 475.376 299.552 477.392 297.344 479.312C295.232 481.232 292.64 483.008 289.568 484.64C286.592 486.272 283.328 487.616 279.776 488.672C280.064 494.816 281.168 499.808 283.088 503.648C285.008 507.392 287.456 509.264 290.432 509.264C291.872 509.264 293.408 508.64 295.04 507.392C296.672 506.144 298.256 504.608 299.792 502.784C301.424 500.864 302.912 498.752 304.256 496.448C305.696 494.144 306.944 491.936 308 489.824C308.576 488.96 309.104 488.528 309.584 488.528C309.968 488.528 310.304 488.816 310.592 489.392C310.976 489.968 311.168 490.784 311.168 491.84C311.168 492.8 310.688 494.48 309.728 496.88C308.864 499.28 307.424 501.728 305.408 504.224C303.488 506.624 301.04 508.784 298.064 510.704C295.184 512.624 291.728 513.584 287.696 513.584C285.104 513.584 282.704 513.056 280.496 512C278.288 510.848 276.368 509.168 274.736 506.96C273.104 504.656 271.808 501.776 270.848 498.32C269.888 494.768 269.408 490.592 269.408 485.792C269.408 484.544 269.552 483.728 269.84 483.344C270.224 482.864 271.088 482.384 272.432 481.904C276.464 480.56 280.016 478.976 283.088 477.152C286.256 475.232 288.944 473.312 291.152 471.392C293.36 469.472 295.04 467.6 296.192 465.776C297.344 463.952 297.92 462.368 297.92 461.024C297.92 459.296 296.912 458.432 294.896 458.432C291.728 458.432 287.456 460.496 282.08 464.624C279.392 466.64 276.896 469.04 274.592 471.824C272.384 474.512 270.176 477.728 267.968 481.472C265.856 485.216 263.648 489.584 261.344 494.576C259.04 499.568 256.496 505.376 253.712 512C253.424 512.672 252.992 513.008 252.416 513.008C251.552 513.008 250.832 512.336 250.256 510.992C249.584 509.552 249.248 507.92 249.248 506.096C249.248 504.848 249.392 503.456 249.68 501.92C249.872 500.288 250.304 498.464 250.976 496.448C251.648 494.24 252.8 491.216 254.432 487.376C256.16 483.44 258.176 479.072 260.48 474.272C262.784 469.472 265.28 464.432 267.968 459.152C270.752 453.776 273.536 448.592 276.32 443.6C279.104 438.512 281.84 433.808 284.528 429.488C287.216 425.072 289.616 421.424 291.728 418.544C292.4 417.584 293.072 417.104 293.744 417.104C294.512 417.104 295.184 417.872 295.76 419.408C296.336 420.944 296.624 422.432 296.624 423.872C296.624 425.6 296.096 427.808 295.04 430.496C293.984 433.088 292.592 436.064 290.864 439.424C289.136 442.784 287.168 446.384 284.96 450.224C282.752 454.064 280.496 458 278.192 462.032ZM316.842 487.376C315.402 491.6 314.682 495.248 314.682 498.32C314.682 502.352 315.546 505.328 317.274 507.248C319.002 509.168 321.354 510.128 324.33 510.128C327.114 510.128 329.85 509.504 332.538 508.256C335.226 506.912 337.77 505.28 340.17 503.36C342.57 501.344 344.778 499.136 346.794 496.736C348.81 494.336 350.538 491.984 351.978 489.68C352.266 489.104 352.65 488.816 353.13 488.816C353.514 488.816 353.85 489.008 354.138 489.392C354.522 489.776 354.714 490.4 354.714 491.264C354.714 494.144 353.658 496.976 351.546 499.76C349.434 502.544 346.794 505.04 343.626 507.248C340.458 509.36 337.002 511.04 333.258 512.288C329.61 513.632 326.202 514.304 323.034 514.304C316.89 514.304 312.186 512.48 308.922 508.832C305.754 505.088 304.17 500.336 304.17 494.576C304.17 489.296 305.61 483.776 308.49 478.016C310.314 474.272 312.378 470.96 314.682 468.08C316.986 465.2 319.338 462.8 321.738 460.88C324.138 458.96 326.49 457.52 328.794 456.56C331.194 455.504 333.354 454.976 335.274 454.976C336.81 454.976 338.394 455.408 340.026 456.272C341.754 457.04 343.29 458.096 344.634 459.44C346.074 460.784 347.226 462.272 348.09 463.904C349.05 465.536 349.53 467.12 349.53 468.656C349.53 470.96 348.954 473.504 347.802 476.288C346.65 478.976 345.066 481.472 343.05 483.776C341.13 486.08 338.874 488.048 336.282 489.68C333.786 491.216 331.146 491.984 328.362 491.984C324.522 491.984 320.682 490.448 316.842 487.376ZM318.138 484.208C319.77 485.264 321.402 485.792 323.034 485.792C325.338 485.792 327.594 484.88 329.802 483.056C332.01 481.136 333.978 478.976 335.706 476.576C337.53 474.08 338.97 471.632 340.026 469.232C341.082 466.736 341.61 464.864 341.61 463.616C341.61 462.176 340.938 461.456 339.594 461.456C338.538 461.456 337.146 461.984 335.418 463.04C333.786 464 332.01 465.392 330.09 467.216C328.266 468.944 326.394 471.056 324.474 473.552C322.554 476.048 320.826 478.784 319.29 481.76L318.714 483.056L318.138 484.208ZM367.578 455.984C365.658 455.984 364.074 455.744 362.826 455.264C361.578 454.784 360.522 454.256 359.658 453.68C358.89 453.104 358.314 452.528 357.93 451.952C357.642 451.28 357.498 450.8 357.498 450.512C357.498 450.128 358.026 449.84 359.082 449.648C360.234 449.456 361.578 449.312 363.114 449.216C364.65 449.12 366.234 449.072 367.866 449.072C369.402 449.072 370.698 448.976 371.754 448.784C373.194 446.192 374.538 443.744 375.786 441.44C377.13 439.136 378.378 437.12 379.53 435.392C380.682 433.664 381.69 432.272 382.554 431.216C383.418 430.16 384.09 429.632 384.57 429.632C385.434 429.632 386.058 430.4 386.442 431.936C386.922 433.472 387.162 434.912 387.162 436.256C387.162 439.328 386.202 442.976 384.282 447.2C386.01 447.2 387.45 447.44 388.602 447.92C389.85 448.304 390.81 448.832 391.482 449.504C392.25 450.08 392.778 450.704 393.066 451.376C393.45 452.048 393.642 452.576 393.642 452.96C393.642 453.824 392.922 454.256 391.482 454.256C391.002 454.16 390.474 454.112 389.898 454.112C389.418 454.112 388.938 454.112 388.458 454.112C387.114 454.112 385.722 454.208 384.282 454.4C382.938 454.496 381.594 454.64 380.25 454.832C378.426 457.904 376.266 461.552 373.77 465.776C371.178 470 368.73 474.32 366.426 478.736C364.122 483.152 362.154 487.424 360.522 491.552C358.986 495.68 358.218 499.136 358.218 501.92C358.218 504.416 358.698 506.384 359.658 507.824C360.618 509.264 362.01 510.08 363.834 510.272C365.466 510.272 367.146 509.744 368.874 508.688C370.698 507.536 372.474 506 374.202 504.08C376.026 502.16 377.754 499.952 379.386 497.456C381.018 494.96 382.506 492.32 383.85 489.536C384.522 488.576 385.098 488.096 385.578 488.096C386.058 488.096 386.442 488.432 386.73 489.104C387.018 489.776 387.162 490.592 387.162 491.552C387.162 492.512 386.97 493.472 386.586 494.432C386.298 495.392 385.914 496.496 385.434 497.744C384.954 498.8 384.042 500.24 382.698 502.064C381.45 503.888 379.818 505.712 377.802 507.536C375.882 509.36 373.674 510.896 371.178 512.144C368.682 513.488 365.994 514.16 363.114 514.16C359.466 514.16 356.298 512.816 353.61 510.128C350.922 507.344 349.578 503.504 349.578 498.608C349.578 494 351.258 488.192 354.618 481.184C358.074 474.176 362.394 465.776 367.578 455.984ZM433.799 475.712C435.335 476.48 436.583 477.536 437.543 478.88C438.599 480.224 439.127 481.472 439.127 482.624C439.127 483.392 438.791 483.776 438.119 483.776C436.967 483.776 435.671 483.68 434.231 483.488C432.791 483.296 431.303 483.2 429.767 483.2C428.423 485.504 426.839 488.528 425.015 492.272C423.287 495.92 421.607 499.472 419.975 502.928C418.343 506.48 416.855 509.504 415.511 512C414.263 514.592 413.495 515.888 413.207 515.888C412.343 515.888 411.479 514.976 410.615 513.152C409.847 511.424 409.463 509.648 409.463 507.824C409.463 505.232 410.183 502.064 411.623 498.32C413.159 494.576 415.223 489.872 417.815 484.208C414.167 484.688 410.471 485.264 406.727 485.936C403.079 486.512 399.767 487.184 396.791 487.952C395.831 488.144 395.159 488.24 394.775 488.24C393.911 488.24 392.951 487.712 391.895 486.656C390.935 485.6 390.023 484.4 389.159 483.056C388.295 481.712 387.575 480.416 386.999 479.168C386.519 477.92 386.279 477.056 386.279 476.576C386.279 475.808 386.663 474.944 387.431 473.984C390.407 470.432 394.247 466.496 398.951 462.176C403.655 457.76 408.695 453.392 414.071 449.072C419.447 444.656 424.871 440.432 430.343 436.4C435.911 432.272 440.999 428.72 445.607 425.744C446.567 425.072 447.575 424.736 448.631 424.736C449.111 424.736 449.543 424.832 449.927 425.024C450.407 425.216 450.839 425.6 451.223 426.176L455.255 432.944C456.023 434.48 456.407 435.584 456.407 436.256C456.407 437.024 455.687 438.704 454.247 441.296C452.807 443.792 450.983 446.864 448.775 450.512C446.471 454.16 443.975 458.192 441.287 462.608C438.695 467.024 436.199 471.392 433.799 475.712ZM443.735 438.272C439.511 441.152 435.143 444.272 430.631 447.632C426.119 450.896 421.655 454.256 417.239 457.712C412.823 461.168 408.599 464.672 404.567 468.224C400.631 471.776 397.079 475.232 393.911 478.592C398.327 477.44 403.079 476.432 408.167 475.568C413.351 474.704 418.247 474.176 422.855 473.984C426.023 467.84 429.431 461.648 433.079 455.408C436.727 449.168 440.279 443.456 443.735 438.272ZM469.912 500.336C468.76 501.968 467.416 503.6 465.88 505.232C464.44 506.768 462.856 508.208 461.128 509.552C459.4 510.8 457.624 511.808 455.8 512.576C453.976 513.44 452.104 513.872 450.184 513.872C446.44 513.872 443.8 512.816 442.264 510.704C440.823 508.592 440.103 506 440.103 502.928C440.103 500.432 440.631 497.456 441.688 494C442.648 490.544 444.04 486.8 445.864 482.768C447.784 478.736 450.088 474.464 452.776 469.952C455.464 465.44 458.44 460.88 461.704 456.272C462.28 455.504 462.904 455.12 463.576 455.12C464.248 455.12 464.824 455.408 465.304 455.984C465.784 456.464 466.168 457.088 466.456 457.856C466.744 458.624 466.936 459.44 467.032 460.304C467.224 461.168 467.32 461.936 467.32 462.608C467.32 466.256 465.784 470.576 462.712 475.568C460.984 478.352 459.304 481.136 457.672 483.92C456.04 486.704 454.6 489.392 453.352 491.984C452.2 494.576 451.24 496.976 450.472 499.184C449.8 501.392 449.464 503.312 449.464 504.944C449.464 507.536 450.376 508.976 452.2 509.264C454.408 509.264 456.856 507.92 459.544 505.232C462.328 502.544 465.112 499.184 467.896 495.152C470.68 491.12 473.464 486.704 476.248 481.904C478.936 477.2 481.432 472.832 483.736 468.8C486.136 464.768 488.152 461.408 489.784 458.72C491.512 456.032 492.76 454.688 493.528 454.688C494.488 454.688 495.304 455.504 495.976 457.136C496.648 458.672 496.984 460.448 496.984 462.464C496.984 463.808 496.792 465.248 496.408 466.784C496.12 468.32 495.592 469.904 494.824 471.536C493.672 474.128 492.184 476.96 490.36 480.032C488.536 483.104 486.76 486.176 485.032 489.248C483.304 492.32 481.816 495.248 480.568 498.032C479.32 500.816 478.695 503.216 478.695 505.232C478.695 508.496 479.992 510.128 482.584 510.128C484.12 510.128 485.752 509.6 487.48 508.544C489.208 507.392 490.888 505.904 492.52 504.08C494.248 502.256 495.928 500.144 497.56 497.744C499.192 495.344 500.728 492.848 502.168 490.256C502.552 489.584 503.032 489.248 503.608 489.248C503.992 489.248 504.328 489.488 504.616 489.968C505 490.448 505.192 491.36 505.192 492.704C505.192 495.2 504.424 497.744 502.888 500.336C501.448 502.832 499.576 505.184 497.272 507.392C495.064 509.504 492.568 511.232 489.784 512.576C487.096 513.92 484.456 514.592 481.864 514.592C477.64 514.592 474.52 513.584 472.504 511.568C470.584 509.456 469.624 506.672 469.624 503.216C469.624 502.736 469.624 502.256 469.624 501.776C469.72 501.296 469.816 500.816 469.912 500.336ZM530.002 511.424C533.458 511.232 536.626 510.512 539.506 509.264C542.386 507.92 544.93 506.288 547.138 504.368C549.442 502.352 551.41 500.144 553.042 497.744C554.77 495.344 556.21 492.896 557.362 490.4C557.746 489.44 558.226 488.96 558.802 488.96C559.858 488.96 560.386 490.112 560.386 492.416C560.386 496.64 559.186 500.192 556.786 503.072C554.482 505.952 551.65 508.352 548.29 510.272C545.026 512.096 541.57 513.392 537.922 514.16C534.37 515.024 531.298 515.456 528.706 515.456C522.946 515.456 518.098 514.16 514.162 511.568C510.226 508.976 507.97 505.232 507.394 500.336C504.034 506.672 500.578 513.392 497.026 520.496C493.378 527.6 489.826 535.232 486.37 543.392C486.082 544.16 485.698 544.544 485.218 544.544C484.354 544.544 483.634 543.728 483.058 542.096C482.386 540.56 482.05 538.976 482.05 537.344C482.05 536.096 482.194 534.704 482.482 533.168C482.674 531.632 483.106 529.856 483.778 527.84C484.45 525.824 485.794 522.608 487.81 518.192C489.73 513.776 491.986 508.88 494.578 503.504C497.17 498.032 499.954 492.464 502.93 486.8C505.906 481.04 508.738 475.808 511.426 471.104C514.114 466.304 516.514 462.416 518.626 459.44C520.738 456.368 522.274 454.832 523.234 454.832C524.098 454.832 524.722 455.6 525.106 457.136C525.49 458.672 525.682 460.16 525.682 461.6V462.752C527.602 461.024 529.762 459.536 532.162 458.288C534.562 457.04 536.914 456.416 539.218 456.416C540.946 456.416 542.482 456.848 543.826 457.712C545.266 458.48 546.466 459.536 547.426 460.88C548.482 462.224 549.25 463.808 549.73 465.632C550.306 467.36 550.594 469.136 550.594 470.96C550.594 474.8 549.922 478.832 548.578 483.056C547.234 487.184 545.506 491.12 543.394 494.864C541.378 498.608 539.17 501.968 536.77 504.944C534.37 507.92 532.114 510.08 530.002 511.424ZM515.458 485.936C514.498 488.432 513.73 490.832 513.154 493.136C512.674 495.344 512.434 497.408 512.434 499.328C512.434 501.536 512.818 503.504 513.586 505.232C514.45 506.96 515.698 507.824 517.33 507.824C518.578 507.824 520.066 507.152 521.794 505.808C523.522 504.464 525.25 502.688 526.978 500.48C528.802 498.272 530.578 495.728 532.306 492.848C534.034 489.968 535.57 487.04 536.914 484.064C538.258 480.992 539.314 477.968 540.082 474.992C540.946 472.016 541.378 469.28 541.378 466.784C541.378 462.944 540.37 461.024 538.354 461.024C537.394 461.024 536.194 461.456 534.754 462.32C533.314 463.088 531.778 464.192 530.146 465.632C528.514 467.072 526.834 468.848 525.106 470.96C523.378 472.976 521.794 475.232 520.354 477.728L515.458 485.936Z" fill="black"/>
<path d="M27.752 469.104C29.288 467.28 31.064 465.456 33.08 463.632C35.096 461.712 37.16 459.984 39.272 458.448C41.384 456.912 43.352 455.712 45.176 454.848C47.096 453.888 48.728 453.408 50.072 453.408C51.992 453.408 53.48 454.464 54.536 456.576C55.688 458.592 56.264 460.848 56.264 463.344C56.264 464.976 56.072 466.368 55.688 467.52C57.416 465.792 59.24 464.112 61.16 462.48C63.176 460.848 65.144 459.456 67.064 458.304C69.08 457.056 70.952 456.048 72.68 455.28C74.408 454.512 75.848 454.128 77 454.128C78.632 454.128 79.832 454.896 80.6 456.432C81.464 457.968 81.896 459.84 81.896 462.048C81.896 463.296 81.752 464.592 81.464 465.936C81.272 467.28 80.936 468.624 80.456 469.968C79.496 472.368 78.152 474.912 76.424 477.6C74.696 480.384 72.968 483.168 71.24 485.952C69.512 488.736 68.024 491.472 66.776 494.16C65.528 496.752 64.904 499.056 64.904 501.072C64.904 503.184 65.384 504.864 66.344 506.112C67.4 507.264 68.744 507.84 70.376 507.84C71.816 507.84 73.304 507.264 74.84 506.112C76.376 504.96 77.912 503.472 79.448 501.648C80.984 499.824 82.472 497.76 83.912 495.456C85.448 493.056 86.936 490.608 88.376 488.112C88.76 487.44 89.192 487.104 89.672 487.104C90.152 487.104 90.536 487.296 90.824 487.68C91.112 487.968 91.256 488.64 91.256 489.696C91.256 492.384 90.536 495.072 89.096 497.76C87.656 500.448 85.784 502.896 83.48 505.104C81.272 507.216 78.776 508.944 75.992 510.288C73.304 511.632 70.664 512.304 68.072 512.304C63.464 512.304 59.96 511.152 57.56 508.848C55.256 506.544 54.104 503.52 54.104 499.776C54.104 497.856 54.536 495.696 55.4 493.296C56.36 490.896 57.512 488.448 58.856 485.952C60.2 483.36 61.688 480.768 63.32 478.176C64.952 475.68 66.44 473.376 67.784 471.264C69.128 469.056 70.232 467.184 71.096 465.648C72.056 464.016 72.536 462.864 72.536 462.192C72.536 461.904 72.296 461.76 71.816 461.76C70.952 461.76 69.272 462.48 66.776 463.92C64.376 465.264 61.064 468.048 56.84 472.272C50.792 478.32 45.848 484.656 42.008 491.28C38.264 497.904 34.856 504.672 31.784 511.584C31.208 512.64 30.584 513.168 29.912 513.168C29.24 513.168 28.376 512.4 27.32 510.864C26.264 509.424 25.736 507.36 25.736 504.672C25.736 501.792 26.552 498.288 28.184 494.16C29.24 491.376 30.728 488.352 32.648 485.088C34.664 481.728 36.68 478.464 38.696 475.296C40.616 472.224 42.296 469.488 43.736 467.088C45.176 464.688 45.896 463.008 45.896 462.048C45.896 461.568 45.608 461.328 45.032 461.328C43.784 461.328 41.624 462.384 38.552 464.496C35.576 466.512 31.928 469.872 27.608 474.576C23.288 479.28 19.4 484.752 15.944 490.992C12.488 497.232 9.32 503.808 6.44 510.72C6.056 511.68 5.576 512.16 5 512.16C4.424 512.16 3.896 511.872 3.416 511.296C2.84 510.816 2.36 510.192 1.976 509.424C1.592 508.656 1.304 507.84 1.112 506.976C0.824 506.016 0.68 505.152 0.68 504.384C0.68 502.944 1.304 500.448 2.552 496.896C3.8 493.248 5.48 489.072 7.592 484.368C9.8 479.568 12.344 474.528 15.224 469.248C18.2 463.872 21.416 458.688 24.872 453.696C25.352 452.928 25.832 452.544 26.312 452.544C26.792 452.544 27.224 452.832 27.608 453.408C27.992 453.888 28.328 454.512 28.616 455.28C28.904 456.048 29.096 456.912 29.192 457.872C29.384 458.736 29.48 459.552 29.48 460.32C29.48 463.2 28.904 466.128 27.752 469.104ZM99.6699 485.376C98.2299 489.6 97.5099 493.248 97.5099 496.32C97.5099 500.352 98.3739 503.328 100.102 505.248C101.83 507.168 104.182 508.128 107.158 508.128C109.942 508.128 112.678 507.504 115.366 506.256C118.054 504.912 120.598 503.28 122.998 501.36C125.398 499.344 127.606 497.136 129.622 494.736C131.638 492.336 133.366 489.984 134.806 487.68C135.094 487.104 135.478 486.816 135.958 486.816C136.342 486.816 136.678 487.008 136.966 487.392C137.35 487.776 137.542 488.4 137.542 489.264C137.542 492.144 136.486 494.976 134.374 497.76C132.262 500.544 129.622 503.04 126.454 505.248C123.286 507.36 119.83 509.04 116.086 510.288C112.438 511.632 109.03 512.304 105.862 512.304C99.7179 512.304 95.0139 510.48 91.7499 506.832C88.5819 503.088 86.9979 498.336 86.9979 492.576C86.9979 487.296 88.4379 481.776 91.3179 476.016C93.1419 472.272 95.2059 468.96 97.5099 466.08C99.8139 463.2 102.166 460.8 104.566 458.88C106.966 456.96 109.318 455.52 111.622 454.56C114.022 453.504 116.182 452.976 118.102 452.976C119.638 452.976 121.222 453.408 122.854 454.272C124.582 455.04 126.118 456.096 127.462 457.44C128.902 458.784 130.054 460.272 130.918 461.904C131.878 463.536 132.358 465.12 132.358 466.656C132.358 468.96 131.782 471.504 130.63 474.288C129.478 476.976 127.894 479.472 125.878 481.776C123.958 484.08 121.702 486.048 119.11 487.68C116.614 489.216 113.974 489.984 111.19 489.984C107.35 489.984 103.51 488.448 99.6699 485.376ZM100.966 482.208C102.598 483.264 104.23 483.792 105.862 483.792C108.166 483.792 110.422 482.88 112.63 481.056C114.838 479.136 116.806 476.976 118.534 474.576C120.358 472.08 121.798 469.632 122.854 467.232C123.91 464.736 124.438 462.864 124.438 461.616C124.438 460.176 123.766 459.456 122.422 459.456C121.366 459.456 119.974 459.984 118.246 461.04C116.614 462 114.838 463.392 112.918 465.216C111.094 466.944 109.222 469.056 107.302 471.552C105.382 474.048 103.654 476.784 102.118 479.76L101.542 481.056L100.966 482.208ZM192.307 497.04C189.523 501.456 185.683 505.152 180.787 508.128C175.891 511.104 170.419 513.696 164.371 515.904C162.163 520.992 159.763 526.272 157.171 531.744C154.675 537.312 152.035 542.448 149.251 547.152C146.467 551.856 143.587 555.696 140.611 558.672C137.635 561.744 134.707 563.28 131.827 563.28C130.675 563.28 129.571 562.848 128.515 561.984C127.363 561.12 126.307 560.016 125.347 558.672C124.387 557.328 123.619 555.744 123.043 553.92C122.467 552.192 122.179 550.416 122.179 548.592C122.179 544.56 123.091 540.768 124.915 537.216C126.739 533.76 129.187 530.592 132.259 527.712C135.235 524.832 138.595 522.288 142.339 520.08C146.179 517.872 150.115 516.048 154.147 514.608C154.915 512.976 155.635 511.296 156.307 509.568C156.883 507.936 157.555 506.304 158.323 504.672C156.211 506.784 153.907 508.512 151.411 509.856C149.011 511.2 146.467 511.872 143.779 511.872C139.939 511.872 137.011 510.576 134.995 507.984C133.075 505.392 132.115 502.08 132.115 498.048C132.115 494.976 132.739 491.568 133.987 487.824C135.235 484.08 137.107 480.336 139.603 476.592C142.387 472.464 145.171 468.912 147.955 465.936C150.835 462.96 153.571 460.56 156.163 458.736C158.755 456.912 161.203 455.568 163.507 454.704C165.907 453.84 168.019 453.408 169.843 453.408C172.819 453.408 174.979 454.368 176.323 456.288C177.667 458.208 178.339 460.416 178.339 462.912C178.915 461.952 179.491 460.896 180.067 459.744C180.643 458.688 181.219 457.68 181.795 456.72C182.371 455.76 182.947 454.944 183.523 454.272C184.099 453.6 184.627 453.264 185.107 453.264C186.067 453.264 186.883 454.08 187.555 455.712C188.323 457.248 188.707 459.024 188.707 461.04C188.707 462.768 187.987 465.36 186.547 468.816C185.203 472.176 183.427 476.064 181.219 480.48C179.107 484.896 176.803 489.6 174.307 494.592C171.715 499.68 169.267 504.816 166.963 510C173.011 506.928 178.099 503.52 182.227 499.776C186.355 496.032 189.859 492.24 192.739 488.4C193.123 487.824 193.603 487.536 194.179 487.536C194.371 487.536 194.611 487.68 194.899 487.968C195.187 488.256 195.331 488.784 195.331 489.552C195.331 491.376 194.323 493.872 192.307 497.04ZM165.811 485.808C168.787 480.624 170.947 476.256 172.291 472.704C173.635 469.152 174.307 466.368 174.307 464.352C174.307 461.952 173.443 460.752 171.715 460.752C170.563 460.752 169.027 461.376 167.107 462.624C165.187 463.872 163.123 465.6 160.915 467.808C158.707 469.92 156.451 472.368 154.147 475.152C151.939 477.936 149.923 480.864 148.099 483.936C146.371 486.912 144.931 489.984 143.779 493.152C142.627 496.32 142.051 499.296 142.051 502.08C142.051 505.632 143.203 507.408 145.507 507.408C148.291 507.408 151.459 505.392 155.011 501.36C158.563 497.328 162.163 492.144 165.811 485.808ZM151.699 520.512C147.667 522.912 144.163 525.6 141.187 528.576C138.307 531.648 135.907 534.672 133.987 537.648C132.163 540.72 130.819 543.552 129.955 546.144C129.091 548.832 128.659 550.944 128.659 552.48C128.659 553.152 128.755 553.728 128.947 554.208C129.043 554.688 129.283 554.928 129.667 554.928C130.435 554.928 131.587 554.064 133.123 552.336C134.755 550.704 136.579 548.352 138.595 545.28C140.611 542.304 142.723 538.704 144.931 534.48C147.235 530.256 149.491 525.6 151.699 520.512ZM237 463.2C237.672 462.048 238.344 460.848 239.016 459.6C239.688 458.352 240.312 457.248 240.888 456.288C241.56 455.232 242.136 454.416 242.616 453.84C243.192 453.168 243.72 452.832 244.2 452.832C244.968 452.832 245.544 453.216 245.928 453.984C246.408 454.752 246.744 455.616 246.936 456.576C247.224 457.44 247.416 458.304 247.512 459.168C247.608 460.032 247.656 460.512 247.656 460.608C247.656 462.912 246.696 465.936 244.776 469.68C242.856 473.328 240.744 477.216 238.44 481.344C236.04 485.472 233.88 489.6 231.96 493.728C230.04 497.76 229.08 501.264 229.08 504.24C229.08 507.024 230.184 508.416 232.392 508.416C233.832 508.416 235.368 507.888 237 506.832C238.728 505.68 240.456 504.192 242.184 502.368C243.912 500.448 245.592 498.288 247.224 495.888C248.856 493.488 250.344 490.992 251.688 488.4C252.072 487.728 252.504 487.392 252.984 487.392C253.848 487.392 254.28 488.4 254.28 490.416C254.28 492.72 253.608 495.168 252.264 497.76C251.016 500.352 249.336 502.752 247.224 504.96C245.112 507.168 242.76 508.992 240.168 510.432C237.672 511.872 235.128 512.592 232.536 512.592C228.312 512.592 225.192 511.488 223.176 509.28C221.16 506.976 220.152 504.144 220.152 500.784C217.848 503.76 215.112 506.4 211.944 508.704C208.872 510.912 205.608 512.016 202.152 512.016C198.312 512.016 195.384 510.72 193.368 508.128C191.352 505.44 190.344 502.032 190.344 497.904C190.344 494.736 190.968 491.28 192.216 487.536C193.464 483.792 195.384 480.048 197.976 476.304C203.832 467.856 209.4 461.856 214.68 458.304C220.056 454.656 224.568 452.832 228.216 452.832C231.384 452.832 233.64 453.888 234.984 456C236.328 458.016 237 460.416 237 463.2ZM224.472 485.52C227.448 480.336 229.608 475.968 230.952 472.416C232.296 468.768 232.968 465.936 232.968 463.92C232.968 461.712 232.2 460.512 230.664 460.32C229.032 460.32 226.536 461.664 223.176 464.352C219.912 466.944 216.552 470.304 213.096 474.432C209.736 478.56 206.76 483.072 204.168 487.968C201.672 492.864 200.424 497.568 200.424 502.08C200.424 503.712 200.712 505.008 201.288 505.968C201.864 506.832 202.68 507.264 203.736 507.264C206.712 507.264 209.976 505.248 213.528 501.216C217.176 497.184 220.824 491.952 224.472 485.52ZM275.192 460.032C278.168 457.152 281.144 454.944 284.12 453.408C287.096 451.872 289.592 451.104 291.608 451.104C292.664 451.104 293.768 451.44 294.92 452.112C296.072 452.784 297.128 453.744 298.088 454.992C299.048 456.24 299.816 457.728 300.392 459.456C301.064 461.088 301.4 462.912 301.4 464.928C301.4 466.944 300.776 469.056 299.528 471.264C298.28 473.376 296.552 475.392 294.344 477.312C292.232 479.232 289.64 481.008 286.568 482.64C283.592 484.272 280.328 485.616 276.776 486.672C277.064 492.816 278.168 497.808 280.088 501.648C282.008 505.392 284.456 507.264 287.432 507.264C288.872 507.264 290.408 506.64 292.04 505.392C293.672 504.144 295.256 502.608 296.792 500.784C298.424 498.864 299.912 496.752 301.256 494.448C302.696 492.144 303.944 489.936 305 487.824C305.576 486.96 306.104 486.528 306.584 486.528C306.968 486.528 307.304 486.816 307.592 487.392C307.976 487.968 308.168 488.784 308.168 489.84C308.168 490.8 307.688 492.48 306.728 494.88C305.864 497.28 304.424 499.728 302.408 502.224C300.488 504.624 298.04 506.784 295.064 508.704C292.184 510.624 288.728 511.584 284.696 511.584C282.104 511.584 279.704 511.056 277.496 510C275.288 508.848 273.368 507.168 271.736 504.96C270.104 502.656 268.808 499.776 267.848 496.32C266.888 492.768 266.408 488.592 266.408 483.792C266.408 482.544 266.552 481.728 266.84 481.344C267.224 480.864 268.088 480.384 269.432 479.904C273.464 478.56 277.016 476.976 280.088 475.152C283.256 473.232 285.944 471.312 288.152 469.392C290.36 467.472 292.04 465.6 293.192 463.776C294.344 461.952 294.92 460.368 294.92 459.024C294.92 457.296 293.912 456.432 291.896 456.432C288.728 456.432 284.456 458.496 279.08 462.624C276.392 464.64 273.896 467.04 271.592 469.824C269.384 472.512 267.176 475.728 264.968 479.472C262.856 483.216 260.648 487.584 258.344 492.576C256.04 497.568 253.496 503.376 250.712 510C250.424 510.672 249.992 511.008 249.416 511.008C248.552 511.008 247.832 510.336 247.256 508.992C246.584 507.552 246.248 505.92 246.248 504.096C246.248 502.848 246.392 501.456 246.68 499.92C246.872 498.288 247.304 496.464 247.976 494.448C248.648 492.24 249.8 489.216 251.432 485.376C253.16 481.44 255.176 477.072 257.48 472.272C259.784 467.472 262.28 462.432 264.968 457.152C267.752 451.776 270.536 446.592 273.32 441.6C276.104 436.512 278.84 431.808 281.528 427.488C284.216 423.072 286.616 419.424 288.728 416.544C289.4 415.584 290.072 415.104 290.744 415.104C291.512 415.104 292.184 415.872 292.76 417.408C293.336 418.944 293.624 420.432 293.624 421.872C293.624 423.6 293.096 425.808 292.04 428.496C290.984 431.088 289.592 434.064 287.864 437.424C286.136 440.784 284.168 444.384 281.96 448.224C279.752 452.064 277.496 456 275.192 460.032ZM313.842 485.376C312.402 489.6 311.682 493.248 311.682 496.32C311.682 500.352 312.546 503.328 314.274 505.248C316.002 507.168 318.354 508.128 321.33 508.128C324.114 508.128 326.85 507.504 329.538 506.256C332.226 504.912 334.77 503.28 337.17 501.36C339.57 499.344 341.778 497.136 343.794 494.736C345.81 492.336 347.538 489.984 348.978 487.68C349.266 487.104 349.65 486.816 350.13 486.816C350.514 486.816 350.85 487.008 351.138 487.392C351.522 487.776 351.714 488.4 351.714 489.264C351.714 492.144 350.658 494.976 348.546 497.76C346.434 500.544 343.794 503.04 340.626 505.248C337.458 507.36 334.002 509.04 330.258 510.288C326.61 511.632 323.202 512.304 320.034 512.304C313.89 512.304 309.186 510.48 305.922 506.832C302.754 503.088 301.17 498.336 301.17 492.576C301.17 487.296 302.61 481.776 305.49 476.016C307.314 472.272 309.378 468.96 311.682 466.08C313.986 463.2 316.338 460.8 318.738 458.88C321.138 456.96 323.49 455.52 325.794 454.56C328.194 453.504 330.354 452.976 332.274 452.976C333.81 452.976 335.394 453.408 337.026 454.272C338.754 455.04 340.29 456.096 341.634 457.44C343.074 458.784 344.226 460.272 345.09 461.904C346.05 463.536 346.53 465.12 346.53 466.656C346.53 468.96 345.954 471.504 344.802 474.288C343.65 476.976 342.066 479.472 340.05 481.776C338.13 484.08 335.874 486.048 333.282 487.68C330.786 489.216 328.146 489.984 325.362 489.984C321.522 489.984 317.682 488.448 313.842 485.376ZM315.138 482.208C316.77 483.264 318.402 483.792 320.034 483.792C322.338 483.792 324.594 482.88 326.802 481.056C329.01 479.136 330.978 476.976 332.706 474.576C334.53 472.08 335.97 469.632 337.026 467.232C338.082 464.736 338.61 462.864 338.61 461.616C338.61 460.176 337.938 459.456 336.594 459.456C335.538 459.456 334.146 459.984 332.418 461.04C330.786 462 329.01 463.392 327.09 465.216C325.266 466.944 323.394 469.056 321.474 471.552C319.554 474.048 317.826 476.784 316.29 479.76L315.714 481.056L315.138 482.208ZM364.578 453.984C362.658 453.984 361.074 453.744 359.826 453.264C358.578 452.784 357.522 452.256 356.658 451.68C355.89 451.104 355.314 450.528 354.93 449.952C354.642 449.28 354.498 448.8 354.498 448.512C354.498 448.128 355.026 447.84 356.082 447.648C357.234 447.456 358.578 447.312 360.114 447.216C361.65 447.12 363.234 447.072 364.866 447.072C366.402 447.072 367.698 446.976 368.754 446.784C370.194 444.192 371.538 441.744 372.786 439.44C374.13 437.136 375.378 435.12 376.53 433.392C377.682 431.664 378.69 430.272 379.554 429.216C380.418 428.16 381.09 427.632 381.57 427.632C382.434 427.632 383.058 428.4 383.442 429.936C383.922 431.472 384.162 432.912 384.162 434.256C384.162 437.328 383.202 440.976 381.282 445.2C383.01 445.2 384.45 445.44 385.602 445.92C386.85 446.304 387.81 446.832 388.482 447.504C389.25 448.08 389.778 448.704 390.066 449.376C390.45 450.048 390.642 450.576 390.642 450.96C390.642 451.824 389.922 452.256 388.482 452.256C388.002 452.16 387.474 452.112 386.898 452.112C386.418 452.112 385.938 452.112 385.458 452.112C384.114 452.112 382.722 452.208 381.282 452.4C379.938 452.496 378.594 452.64 377.25 452.832C375.426 455.904 373.266 459.552 370.77 463.776C368.178 468 365.73 472.32 363.426 476.736C361.122 481.152 359.154 485.424 357.522 489.552C355.986 493.68 355.218 497.136 355.218 499.92C355.218 502.416 355.698 504.384 356.658 505.824C357.618 507.264 359.01 508.08 360.834 508.272C362.466 508.272 364.146 507.744 365.874 506.688C367.698 505.536 369.474 504 371.202 502.08C373.026 500.16 374.754 497.952 376.386 495.456C378.018 492.96 379.506 490.32 380.85 487.536C381.522 486.576 382.098 486.096 382.578 486.096C383.058 486.096 383.442 486.432 383.73 487.104C384.018 487.776 384.162 488.592 384.162 489.552C384.162 490.512 383.97 491.472 383.586 492.432C383.298 493.392 382.914 494.496 382.434 495.744C381.954 496.8 381.042 498.24 379.698 500.064C378.45 501.888 376.818 503.712 374.802 505.536C372.882 507.36 370.674 508.896 368.178 510.144C365.682 511.488 362.994 512.16 360.114 512.16C356.466 512.16 353.298 510.816 350.61 508.128C347.922 505.344 346.578 501.504 346.578 496.608C346.578 492 348.258 486.192 351.618 479.184C355.074 472.176 359.394 463.776 364.578 453.984ZM430.799 473.712C432.335 474.48 433.583 475.536 434.543 476.88C435.599 478.224 436.127 479.472 436.127 480.624C436.127 481.392 435.791 481.776 435.119 481.776C433.967 481.776 432.671 481.68 431.231 481.488C429.791 481.296 428.303 481.2 426.767 481.2C425.423 483.504 423.839 486.528 422.015 490.272C420.287 493.92 418.607 497.472 416.975 500.928C415.343 504.48 413.855 507.504 412.511 510C411.263 512.592 410.495 513.888 410.207 513.888C409.343 513.888 408.479 512.976 407.615 511.152C406.847 509.424 406.463 507.648 406.463 505.824C406.463 503.232 407.183 500.064 408.623 496.32C410.159 492.576 412.223 487.872 414.815 482.208C411.167 482.688 407.471 483.264 403.727 483.936C400.079 484.512 396.767 485.184 393.791 485.952C392.831 486.144 392.159 486.24 391.775 486.24C390.911 486.24 389.951 485.712 388.895 484.656C387.935 483.6 387.023 482.4 386.159 481.056C385.295 479.712 384.575 478.416 383.999 477.168C383.519 475.92 383.279 475.056 383.279 474.576C383.279 473.808 383.663 472.944 384.431 471.984C387.407 468.432 391.247 464.496 395.951 460.176C400.655 455.76 405.695 451.392 411.071 447.072C416.447 442.656 421.871 438.432 427.343 434.4C432.911 430.272 437.999 426.72 442.607 423.744C443.567 423.072 444.575 422.736 445.631 422.736C446.111 422.736 446.543 422.832 446.927 423.024C447.407 423.216 447.839 423.6 448.223 424.176L452.255 430.944C453.023 432.48 453.407 433.584 453.407 434.256C453.407 435.024 452.687 436.704 451.247 439.296C449.807 441.792 447.983 444.864 445.775 448.512C443.471 452.16 440.975 456.192 438.287 460.608C435.695 465.024 433.199 469.392 430.799 473.712ZM440.735 436.272C436.511 439.152 432.143 442.272 427.631 445.632C423.119 448.896 418.655 452.256 414.239 455.712C409.823 459.168 405.599 462.672 401.567 466.224C397.631 469.776 394.079 473.232 390.911 476.592C395.327 475.44 400.079 474.432 405.167 473.568C410.351 472.704 415.247 472.176 419.855 471.984C423.023 465.84 426.431 459.648 430.079 453.408C433.727 447.168 437.279 441.456 440.735 436.272ZM466.912 498.336C465.76 499.968 464.416 501.6 462.88 503.232C461.44 504.768 459.856 506.208 458.128 507.552C456.4 508.8 454.624 509.808 452.8 510.576C450.976 511.44 449.104 511.872 447.184 511.872C443.44 511.872 440.8 510.816 439.264 508.704C437.823 506.592 437.103 504 437.103 500.928C437.103 498.432 437.631 495.456 438.688 492C439.648 488.544 441.04 484.8 442.864 480.768C444.784 476.736 447.088 472.464 449.776 467.952C452.464 463.44 455.44 458.88 458.704 454.272C459.28 453.504 459.904 453.12 460.576 453.12C461.248 453.12 461.824 453.408 462.304 453.984C462.784 454.464 463.168 455.088 463.456 455.856C463.744 456.624 463.936 457.44 464.032 458.304C464.224 459.168 464.32 459.936 464.32 460.608C464.32 464.256 462.784 468.576 459.712 473.568C457.984 476.352 456.304 479.136 454.672 481.92C453.04 484.704 451.6 487.392 450.352 489.984C449.2 492.576 448.24 494.976 447.472 497.184C446.8 499.392 446.464 501.312 446.464 502.944C446.464 505.536 447.376 506.976 449.2 507.264C451.408 507.264 453.856 505.92 456.544 503.232C459.328 500.544 462.112 497.184 464.896 493.152C467.68 489.12 470.464 484.704 473.248 479.904C475.936 475.2 478.432 470.832 480.736 466.8C483.136 462.768 485.152 459.408 486.784 456.72C488.512 454.032 489.76 452.688 490.528 452.688C491.488 452.688 492.304 453.504 492.976 455.136C493.648 456.672 493.984 458.448 493.984 460.464C493.984 461.808 493.792 463.248 493.408 464.784C493.12 466.32 492.592 467.904 491.824 469.536C490.672 472.128 489.184 474.96 487.36 478.032C485.536 481.104 483.76 484.176 482.032 487.248C480.304 490.32 478.816 493.248 477.568 496.032C476.32 498.816 475.695 501.216 475.695 503.232C475.695 506.496 476.992 508.128 479.584 508.128C481.12 508.128 482.752 507.6 484.48 506.544C486.208 505.392 487.888 503.904 489.52 502.08C491.248 500.256 492.928 498.144 494.56 495.744C496.192 493.344 497.728 490.848 499.168 488.256C499.552 487.584 500.032 487.248 500.608 487.248C500.992 487.248 501.328 487.488 501.616 487.968C502 488.448 502.192 489.36 502.192 490.704C502.192 493.2 501.424 495.744 499.888 498.336C498.448 500.832 496.576 503.184 494.272 505.392C492.064 507.504 489.568 509.232 486.784 510.576C484.096 511.92 481.456 512.592 478.864 512.592C474.64 512.592 471.52 511.584 469.504 509.568C467.584 507.456 466.624 504.672 466.624 501.216C466.624 500.736 466.624 500.256 466.624 499.776C466.72 499.296 466.816 498.816 466.912 498.336ZM527.002 509.424C530.458 509.232 533.626 508.512 536.506 507.264C539.386 505.92 541.93 504.288 544.138 502.368C546.442 500.352 548.41 498.144 550.042 495.744C551.77 493.344 553.21 490.896 554.362 488.4C554.746 487.44 555.226 486.96 555.802 486.96C556.858 486.96 557.386 488.112 557.386 490.416C557.386 494.64 556.186 498.192 553.786 501.072C551.482 503.952 548.65 506.352 545.29 508.272C542.026 510.096 538.57 511.392 534.922 512.16C531.37 513.024 528.298 513.456 525.706 513.456C519.946 513.456 515.098 512.16 511.162 509.568C507.226 506.976 504.97 503.232 504.394 498.336C501.034 504.672 497.578 511.392 494.026 518.496C490.378 525.6 486.826 533.232 483.37 541.392C483.082 542.16 482.698 542.544 482.218 542.544C481.354 542.544 480.634 541.728 480.058 540.096C479.386 538.56 479.05 536.976 479.05 535.344C479.05 534.096 479.194 532.704 479.482 531.168C479.674 529.632 480.106 527.856 480.778 525.84C481.45 523.824 482.794 520.608 484.81 516.192C486.73 511.776 488.986 506.88 491.578 501.504C494.17 496.032 496.954 490.464 499.93 484.8C502.906 479.04 505.738 473.808 508.426 469.104C511.114 464.304 513.514 460.416 515.626 457.44C517.738 454.368 519.274 452.832 520.234 452.832C521.098 452.832 521.722 453.6 522.106 455.136C522.49 456.672 522.682 458.16 522.682 459.6V460.752C524.602 459.024 526.762 457.536 529.162 456.288C531.562 455.04 533.914 454.416 536.218 454.416C537.946 454.416 539.482 454.848 540.826 455.712C542.266 456.48 543.466 457.536 544.426 458.88C545.482 460.224 546.25 461.808 546.73 463.632C547.306 465.36 547.594 467.136 547.594 468.96C547.594 472.8 546.922 476.832 545.578 481.056C544.234 485.184 542.506 489.12 540.394 492.864C538.378 496.608 536.17 499.968 533.77 502.944C531.37 505.92 529.114 508.08 527.002 509.424ZM512.458 483.936C511.498 486.432 510.73 488.832 510.154 491.136C509.674 493.344 509.434 495.408 509.434 497.328C509.434 499.536 509.818 501.504 510.586 503.232C511.45 504.96 512.698 505.824 514.33 505.824C515.578 505.824 517.066 505.152 518.794 503.808C520.522 502.464 522.25 500.688 523.978 498.48C525.802 496.272 527.578 493.728 529.306 490.848C531.034 487.968 532.57 485.04 533.914 482.064C535.258 478.992 536.314 475.968 537.082 472.992C537.946 470.016 538.378 467.28 538.378 464.784C538.378 460.944 537.37 459.024 535.354 459.024C534.394 459.024 533.194 459.456 531.754 460.32C530.314 461.088 528.778 462.192 527.146 463.632C525.514 465.072 523.834 466.848 522.106 468.96C520.378 470.976 518.794 473.232 517.354 475.728L512.458 483.936Z" fill="white"/>
<path d="M279.5 333.91C258.14 333.91 222 329.85 222 314.65C222 314.58 222 314.51 222 314.44C222 314.37 222 314.31 222 314.24V80.91C222 78.15 224.24 75.91 227 75.91H332C334.76 75.91 337 78.15 337 80.91V314.24C337 314.31 337 314.37 337 314.44C337 314.51 337 314.58 337 314.65C337 329.85 300.86 333.91 279.5 333.91Z" fill="#C52828"/>
<path d="M332 80.91V314.24H331.96C331.97 314.38 332 314.51 332 314.65C332 322.53 308.49 328.91 279.5 328.91C250.51 328.91 227 322.53 227 314.65C227 314.51 227.02 314.38 227.04 314.24H227V80.91H332ZM332 70.91H227C221.48 70.91 217 75.39 217 80.91V314.24C217 314.31 217 314.37 217 314.44C217 314.51 217 314.58 217 314.65C217 323.64 224.66 330.28 239.76 334.38C250.51 337.3 264.62 338.91 279.5 338.91C294.38 338.91 308.5 337.3 319.24 334.38C334.34 330.28 342 323.64 342 314.65C342 314.58 342 314.51 342 314.44C342 314.37 342 314.31 342 314.24V80.91C342 75.39 337.52 70.91 332 70.91Z" fill="black"/>
<path d="M321.94 80.91H226.94V314.24H226.97C226.96 314.38 226.94 314.51 226.94 314.65C226.94 322.53 248.21 328.91 274.44 328.91C300.67 328.91 321.94 322.53 321.94 314.65C321.94 314.51 321.92 314.38 321.91 314.24H321.94V80.91Z" fill="#F44335"/>
<path d="M269 55.66C267.53 55.66 266.15 54.98 265.25 53.83C264.35 52.68 264.03 51.17 264.39 49.75L274.9 8.33C275.43 6.22 277.33 4.75 279.5 4.75C281.67 4.75 283.57 6.23 284.1 8.33L294.6 49.74C294.96 51.16 294.64 52.67 293.74 53.82C292.84 54.98 291.46 55.65 289.99 55.65H269V55.66Z" fill="#F44335"/>
<path d="M279.5 9.5L290 50.91H269L279.5 9.5ZM279.5 0C275.15 0 271.36 2.95 270.29 7.17L259.79 48.58C259.07 51.42 259.7 54.44 261.5 56.75C263.3 59.06 266.07 60.42 269 60.42H290C292.93 60.42 295.7 59.07 297.5 56.75C299.3 54.43 299.93 51.42 299.21 48.58L288.71 7.17C287.64 2.95 283.85 0 279.5 0Z" fill="black"/>
<path d="M239.5 75.41C236.74 75.41 234.5 73.17 234.5 70.41V60.41C234.5 57.65 236.74 55.41 239.5 55.41H319.5C322.26 55.41 324.5 57.65 324.5 60.41V70.41C324.5 73.17 322.26 75.41 319.5 75.41H239.5Z" fill="#C52828"/>
<path d="M319.5 60.41V70.41H239.5V60.41H319.5ZM319.5 50.41H239.5C233.98 50.41 229.5 54.89 229.5 60.41V70.41C229.5 75.93 233.98 80.41 239.5 80.41H319.5C325.02 80.41 329.5 75.93 329.5 70.41V60.41C329.5 54.89 325.02 50.41 319.5 50.41Z" fill="black"/>
<path d="M337 165.41H222V245.41H337V165.41Z" fill="#BFA885"/>
<path d="M332 170.41V240.41H227V170.41H332ZM342 160.41H332H227H217V170.41V240.41V250.41H227H332H342V240.41V170.41V160.41Z" fill="black"/>
<path d="M321.5 170.41H226.5V240.41H321.5V170.41Z" fill="#FFE0B2"/>
<path d="M256.12 194.91H302.88" stroke="black" stroke-width="12" stroke-miterlimit="10" stroke-linecap="round" stroke-linejoin="round"/>
<path d="M242 218.91H317" stroke="black" stroke-width="12" stroke-miterlimit="10" stroke-linecap="round" stroke-linejoin="round"/>
</svg>
